<?xml version="1.0" encoding="UTF-8" standalone="no"?>
<svg
   version="1.1"
   width="712"
   height="612"
   id="svg58"
   xmlns="http://www.w3.org/2000/svg"
   xmlns:svg="http://www.w3.org/2000/svg">
  <defs
     id="defs1" />
  <path
     fill="none"
     stroke="#000000"
     paint-order="fill stroke markers"
     d="M 10,10 H 702 V 602 H 10 V 10"
     stroke-miterlimit="10"
     stroke-dasharray="none"
     id="path1" />
  <path
     fill="#ffffff"
     stroke="none"
     paint-order="stroke fill markers"
     d="m 10,10 v 23 h 122.46289 l 11.5,-11.5 V 10 H 10"
     id="path2" />
  <path
     fill="none"
     stroke="#000000"
     paint-order="fill stroke markers"
     d="m 10,10 v 23 h 122.46289 l 11.5,-11.5 V 10 H 10 v 0"
     stroke-miterlimit="10"
     stroke-dasharray="none"
     id="path3" />
  <path
     fill="none"
     stroke="none"
     id="path4"
     d="" />
  <path
     d="m 38.751221,25.084807 -3.605469,-9.305664 h 1.333008 l 2.418457,6.760254 q 0.291992,0.8125 0.488769,1.523438 0.215821,-0.761719 0.501465,-1.523438 l 2.513672,-6.760254 h 1.256836 l -3.643555,9.305664 z m 5.636718,-7.991699 v -1.313965 h 1.142579 v 1.313965 z m 0,7.991699 v -6.741211 h 1.142579 v 6.741211 z m 7.496582,-2.170898 1.180665,0.145996 q -0.279297,1.034668 -1.034668,1.605957 -0.755372,0.571289 -1.929688,0.571289 -1.479004,0 -2.348633,-0.907715 -0.863281,-0.914062 -0.863281,-2.558105 0,-1.701172 0.875977,-2.640625 0.875976,-0.939453 2.272461,-0.939453 1.35205,0 2.208984,0.92041 0.856933,0.92041 0.856933,2.589844 0,0.101562 -0.0063,0.304687 H 48.06958 q 0.06348,1.11084 0.628418,1.701172 0.564941,0.590332 1.40918,0.590332 0.628418,0 1.072754,-0.330078 0.444336,-0.330078 0.704589,-1.053711 z m -3.751464,-1.847168 h 3.76416 q -0.07617,-0.850586 -0.431641,-1.275879 -0.545898,-0.660156 -1.415527,-0.660156 -0.78711,0 -1.32666,0.526855 -0.533203,0.526856 -0.590332,1.40918 z m 7.610839,4.018066 -2.062988,-6.741211 h 1.180664 l 1.072754,3.891114 0.399903,1.447265 q 0.02539,-0.10791 0.349121,-1.390136 l 1.072754,-3.948243 h 1.174316 l 1.009277,3.910157 0.336426,1.288574 0.387207,-1.30127 1.155274,-3.897461 h 1.110839 l -2.107422,6.741211 H 59.63501 l -1.072754,-4.037109 -0.260254,-1.148926 -1.364746,5.186035 z m 10.162598,0 3.573731,-9.305664 h 1.32666 l 3.808594,9.305664 h -1.402833 l -1.085449,-2.818359 h -3.891113 l -1.021973,2.818359 z m 2.685059,-3.821289 h 3.154785 L 70.775146,18.68637 q -0.444335,-1.174317 -0.660156,-1.929688 -0.177734,0.89502 -0.501465,1.777344 z m 8.499511,3.821289 -2.564453,-6.741211 h 1.206055 l 1.447266,4.03711 q 0.234863,0.653808 0.43164,1.358398 0.152344,-0.533203 0.425293,-1.282226 l 1.498047,-4.113282 h 1.174317 l -2.551758,6.741211 z m 9.026368,-0.831543 q -0.634766,0.539551 -1.225098,0.761719 -0.583984,0.222168 -1.256836,0.222168 -1.11084,0 -1.707519,-0.539551 -0.59668,-0.545898 -0.59668,-1.390136 0,-0.495118 0.222168,-0.901368 0.228515,-0.412597 0.590332,-0.660156 0.368164,-0.247558 0.825195,-0.374512 0.336426,-0.08887 1.015625,-0.171386 1.383789,-0.165039 2.037598,-0.393555 0.0063,-0.234863 0.0063,-0.29834 0,-0.698242 -0.32373,-0.983886 -0.437988,-0.387208 -1.30127,-0.387208 -0.806152,0 -1.193359,0.285645 -0.380859,0.279297 -0.564941,0.996582 l -1.117188,-0.152344 q 0.152344,-0.717285 0.501465,-1.155273 0.349121,-0.444336 1.009277,-0.679199 0.660157,-0.241211 1.529786,-0.241211 0.863281,0 1.402832,0.203125 0.53955,0.203125 0.793457,0.51416 0.253906,0.304687 0.355468,0.774414 0.05713,0.291992 0.05713,1.053711 V 22.2601 q 0,1.593262 0.06982,2.018555 0.07617,0.418945 0.291993,0.806152 h -1.19336 q -0.177734,-0.355468 -0.228515,-0.831543 z m -0.09521,-2.551757 q -0.622071,0.253906 -1.866211,0.43164 -0.70459,0.101563 -0.996582,0.228516 -0.291992,0.126953 -0.450684,0.374512 -0.158691,0.241211 -0.158691,0.53955 0,0.457032 0.342773,0.761719 0.349121,0.304688 1.015625,0.304688 0.660157,0 1.174317,-0.285645 0.51416,-0.291992 0.755371,-0.793457 0.184082,-0.387207 0.184082,-1.142578 z m 2.932617,-4.608399 v -1.313965 h 1.142578 v 1.313965 z m 0,7.991699 v -6.741211 h 1.142578 v 6.741211 z m 2.856445,0 v -9.305664 h 1.142578 v 9.305664 z m 7.3125,-0.831543 q -0.634765,0.539551 -1.225097,0.761719 -0.583985,0.222168 -1.256836,0.222168 -1.11084,0 -1.70752,-0.539551 -0.59668,-0.545898 -0.59668,-1.390136 0,-0.495118 0.222168,-0.901368 0.228516,-0.412597 0.590332,-0.660156 0.368165,-0.247558 0.825196,-0.374512 0.336426,-0.08887 1.015625,-0.171386 1.383789,-0.165039 2.037597,-0.393555 0.0063,-0.234863 0.0063,-0.29834 0,-0.698242 -0.32373,-0.983886 -0.437989,-0.387208 -1.30127,-0.387208 -0.806152,0 -1.193359,0.285645 -0.38086,0.279297 -0.564942,0.996582 l -1.117187,-0.152344 q 0.152344,-0.717285 0.501465,-1.155273 0.349121,-0.444336 1.009277,-0.679199 0.660156,-0.241211 1.529785,-0.241211 0.863281,0 1.402832,0.203125 0.539551,0.203125 0.793457,0.51416 0.253903,0.304687 0.355473,0.774414 0.0571,0.291992 0.0571,1.053711 V 22.2601 q 0,1.593262 0.0698,2.018555 0.0762,0.418945 0.29199,0.806152 h -1.193361 q -0.177734,-0.355468 -0.228516,-0.831543 z m -0.09521,-2.551757 q -0.62207,0.253906 -1.86621,0.43164 -0.70459,0.101563 -0.996583,0.228516 -0.291992,0.126953 -0.450683,0.374512 -0.158692,0.241211 -0.158692,0.53955 0,0.457032 0.342774,0.761719 0.349121,0.304688 1.015625,0.304688 0.660156,0 1.174316,-0.285645 0.51416,-0.291992 0.755371,-0.793457 0.184082,-0.387207 0.184082,-1.142578 z m 3.979976,3.3833 h -1.06005 v -9.305664 h 1.14257 v 3.319825 q 0.72364,-0.907715 1.84717,-0.907715 0.62207,0 1.17432,0.253906 0.55859,0.247559 0.91406,0.70459 0.36182,0.450683 0.56494,1.091797 0.20313,0.641113 0.20313,1.371093 0,1.732911 -0.85694,2.678711 -0.85693,0.945801 -2.05664,0.945801 -1.19336,0 -1.87256,-0.996582 z m -0.0127,-3.421386 q 0,1.212402 0.33008,1.751953 0.53955,0.882324 1.45996,0.882324 0.74902,0 1.29492,-0.647461 0.5459,-0.653809 0.5459,-1.942383 0,-1.320312 -0.52686,-1.94873 -0.5205,-0.628418 -1.26318,-0.628418 -0.74902,0 -1.29492,0.653808 -0.5459,0.647461 -0.5459,1.878907 z m 6.19531,-4.570313 v -1.313965 h 1.14258 v 1.313965 z m 0,7.991699 v -6.741211 h 1.14258 v 6.741211 z m 2.85645,0 v -9.305664 h 1.14258 v 9.305664 z m 2.91992,-7.991699 v -1.313965 h 1.14258 v 1.313965 z m 0,7.991699 v -6.741211 h 1.14258 v 6.741211 z m 5.37646,-1.021972 0.16504,1.009277 q -0.48242,0.101563 -0.86328,0.101563 -0.62207,0 -0.96484,-0.196778 -0.34278,-0.196777 -0.48242,-0.51416 -0.13965,-0.32373 -0.13965,-1.352051 v -3.878418 h -0.83789 v -0.888672 h 0.83789 v -1.669433 l 1.13623,-0.685547 v 2.35498 h 1.14892 v 0.888672 h -1.14892 v 3.941895 q 0,0.488769 0.0571,0.628418 0.0635,0.139648 0.19677,0.222168 0.13965,0.08252 0.39356,0.08252 0.19043,0 0.50146,-0.04443 z m 1.06641,3.618164 -0.12695,-1.072754 q 0.37451,0.101562 0.65381,0.101562 0.38086,0 0.60937,-0.126953 0.22852,-0.126953 0.37451,-0.355468 0.10791,-0.171387 0.34912,-0.850586 0.0317,-0.09521 0.10157,-0.279297 l -2.55811,-6.753907 h 1.23145 l 1.40283,3.903809 q 0.27295,0.742676 0.48877,1.561523 0.19677,-0.787109 0.46972,-1.536132 l 1.44092,-3.9292 h 1.14258 l -2.56445,6.855469 q -0.4126,1.11084 -0.64112,1.529785 -0.30468,0.564942 -0.69824,0.825196 -0.39355,0.266601 -0.93945,0.266601 -0.33008,0 -0.73633,-0.139648 z"
     id="text4"
     style="font-size:13px;font-family:Arial;dominant-baseline:central;text-anchor:middle"
     aria-label="View Availability" />
  <path
     fill="none"
     stroke="none"
     id="path5"
     d="" />
  <path
     d="m 14.584229,23.161468 1.790039,-0.27295 q 0.114257,0.520508 0.463378,0.793457 0.349122,0.266602 0.97754,0.266602 0.691894,0 1.041015,-0.253906 0.234863,-0.177735 0.234863,-0.476075 0,-0.203125 -0.126953,-0.336425 -0.1333,-0.126953 -0.596679,-0.234864 -2.158203,-0.476074 -2.73584,-0.869629 -0.799805,-0.545898 -0.799805,-1.517089 0,-0.875977 0.691895,-1.472657 0.691894,-0.596679 2.145507,-0.596679 1.38379,0 2.056641,0.450683 0.672852,0.450684 0.926758,1.333008 l -1.682129,0.311035 q -0.10791,-0.393554 -0.412598,-0.603027 -0.29834,-0.209473 -0.856933,-0.209473 -0.70459,0 -1.009278,0.196778 -0.203125,0.139648 -0.203125,0.361816 0,0.19043 0.177735,0.32373 0.241211,0.177735 1.663086,0.501465 1.428222,0.323731 1.993164,0.793457 0.558594,0.476075 0.558594,1.326661 0,0.926757 -0.774415,1.593261 -0.774414,0.666504 -2.291503,0.666504 -1.377442,0 -2.183594,-0.558594 -0.799805,-0.558593 -1.047363,-1.517089 z m 14.041015,1.923339 h -1.656738 v -0.990234 q -0.412598,0.577637 -0.977539,0.863281 -0.558594,0.279297 -1.129883,0.279297 -1.161621,0 -1.993164,-0.933105 -0.825195,-0.939453 -0.825195,-2.615235 0,-1.713867 0.806152,-2.602539 0.806152,-0.895019 2.037598,-0.895019 1.129882,0 1.955078,0.939453 v -3.351563 h 1.783691 z m -4.760742,-3.516601 q 0,1.079101 0.29834,1.561523 0.43164,0.698242 1.206054,0.698242 0.615723,0 1.047364,-0.520507 0.43164,-0.526856 0.43164,-1.567871 0,-1.161622 -0.418945,-1.669434 -0.418945,-0.51416 -1.072754,-0.51416 -0.634765,0 -1.066406,0.507812 -0.425293,0.501465 -0.425293,1.504395 z"
     id="text5"
     style="font-weight:bold;font-size:13px;font-family:Arial;dominant-baseline:central;text-anchor:middle"
     aria-label="sd" />
  <path
     id="rect7"
     style="fill:#c0c0c0;fill-opacity:0.2"
     d="M 41,49 H 188.13721 V 89 H 41 Z" />
  <path
     id="rect8"
     style="fill:#ffffff"
     d="M 34,42 H 181.13721 V 82 H 34 Z" />
  <path
     fill="none"
     stroke="#000000"
     paint-order="fill stroke markers"
     d="M 34,42 H 181.13721 V 82 H 34 Z"
     stroke-miterlimit="10"
     stroke-dasharray="none"
     id="path9" />
  <path
     fill="none"
     stroke="none"
     id="path10"
     d="" />
  <path
     d="m 51.311035,54.336761 -1.758301,0.317382 q -0.08887,-0.526855 -0.40625,-0.793457 -0.311035,-0.266601 -0.8125,-0.266601 -0.666504,0 -1.066406,0.463379 -0.393555,0.457031 -0.393555,1.536132 0,1.199707 0.399903,1.694825 0.40625,0.495117 1.085449,0.495117 0.507812,0 0.831543,-0.285645 0.32373,-0.291992 0.457031,-0.996582 l 1.751953,0.29834 q -0.272949,1.206055 -1.047363,1.821777 -0.774414,0.615723 -2.075684,0.615723 -1.479003,0 -2.361328,-0.933105 -0.875976,-0.933106 -0.875976,-2.583496 0,-1.669434 0.882324,-2.596192 0.882324,-0.933105 2.386719,-0.933105 1.231445,0 1.955078,0.533203 0.72998,0.526855 1.047363,1.612305 z m 5.789063,4.748046 V 58.07553 q -0.368164,0.539551 -0.971192,0.850586 -0.596679,0.311035 -1.263183,0.311035 -0.6792,0 -1.21875,-0.29834 -0.539551,-0.29834 -0.780762,-0.83789 Q 52.625,57.56137 52.625,56.609221 v -4.265625 h 1.783691 v 3.097657 q 0,1.421875 0.09522,1.745605 0.101563,0.317383 0.361817,0.507813 0.260254,0.184082 0.660156,0.184082 0.457031,0 0.818848,-0.247559 0.361816,-0.253906 0.495117,-0.62207 0.133301,-0.374512 0.133301,-1.821778 v -2.84375 h 1.783691 v 6.741211 z m 2.875488,-1.923339 1.790039,-0.27295 q 0.114258,0.520508 0.463379,0.793457 0.349121,0.266602 0.977539,0.266602 0.691894,0 1.041016,-0.253906 0.234863,-0.177735 0.234863,-0.476075 0,-0.203125 -0.126953,-0.336425 -0.133301,-0.126953 -0.59668,-0.234864 -2.158203,-0.476074 -2.73584,-0.869629 -0.799804,-0.545898 -0.799804,-1.517089 0,-0.875977 0.691894,-1.472657 0.691895,-0.596679 2.145508,-0.596679 1.383789,0 2.05664,0.450683 0.672852,0.450684 0.926758,1.333008 l -1.682129,0.311035 q -0.10791,-0.393554 -0.412597,-0.603027 -0.29834,-0.209473 -0.856934,-0.209473 -0.70459,0 -1.009277,0.196778 -0.203125,0.139648 -0.203125,0.361816 0,0.19043 0.177734,0.32373 0.241211,0.177735 1.663086,0.501465 1.428223,0.323731 1.993164,0.793457 0.558594,0.476075 0.558594,1.326661 0,0.926757 -0.774414,1.593261 -0.774414,0.666504 -2.291504,0.666504 -1.377441,0 -2.183594,-0.558594 -0.799804,-0.558593 -1.047363,-1.517089 z m 10.949707,-4.817872 v 1.421875 h -1.21875 v 2.716797 q 0,0.825196 0.03174,0.964844 0.03809,0.133301 0.158692,0.222168 0.126953,0.08887 0.304687,0.08887 0.247559,0 0.717285,-0.171386 l 0.152344,1.383789 q -0.62207,0.266601 -1.40918,0.266601 -0.482422,0 -0.869629,-0.158691 -0.387207,-0.165039 -0.571289,-0.418946 -0.177734,-0.260253 -0.247558,-0.698242 -0.05713,-0.311035 -0.05713,-1.256836 v -2.938965 h -0.818848 v -1.421875 h 0.818848 v -1.339355 l 1.790039,-1.041016 v 2.380371 z m 0.825195,3.275391 q 0,-0.888672 0.437989,-1.720215 0.437988,-0.831543 1.237793,-1.269531 0.806152,-0.437988 1.796386,-0.437988 1.529785,0 2.507324,0.996582 0.97754,0.990234 0.97754,2.507324 0,1.529785 -0.990235,2.539062 -0.983887,1.00293 -2.481933,1.00293 -0.926758,0 -1.770997,-0.418945 -0.83789,-0.418945 -1.275878,-1.225098 -0.437989,-0.8125 -0.437989,-1.974121 z m 1.828125,0.09522 q 0,1.00293 0.476074,1.536133 0.476075,0.533203 1.174317,0.533203 0.698242,0 1.167969,-0.533203 0.476074,-0.533203 0.476074,-1.548828 0,-0.990235 -0.476074,-1.523438 -0.469727,-0.533203 -1.167969,-0.533203 -0.698242,0 -1.174317,0.533203 -0.476074,0.533203 -0.476074,1.536133 z m 6.39209,-3.370606 h 1.644043 v 0.920411 q 0.882324,-1.072754 2.101074,-1.072754 0.647461,0 1.123535,0.266601 0.476075,0.266602 0.780762,0.806153 0.444336,-0.539551 0.958496,-0.806153 0.51416,-0.266601 1.098145,-0.266601 0.742676,0 1.256836,0.304687 0.51416,0.29834 0.768066,0.882324 0.184082,0.431641 0.184082,1.396485 v 4.310058 H 88.102051 V 55.23178 q 0,-1.00293 -0.184082,-1.294922 -0.247559,-0.380859 -0.761719,-0.380859 -0.374512,0 -0.70459,0.228515 -0.330078,0.228516 -0.476074,0.672852 -0.145996,0.437988 -0.145996,1.390137 v 3.237304 h -1.783692 v -3.694336 q 0,-0.983886 -0.09521,-1.269531 -0.09521,-0.285644 -0.29834,-0.425293 -0.196778,-0.139648 -0.539551,-0.139648 -0.412598,0 -0.742676,0.222168 -0.330078,0.222168 -0.476074,0.641113 -0.139648,0.418945 -0.139648,1.390137 v 3.27539 h -1.783692 z m 15.596192,4.595704 1.777343,0.298339 q -0.342773,0.977539 -1.085449,1.4917 -0.736328,0.507812 -1.847168,0.507812 -1.758301,0 -2.602539,-1.148926 -0.666504,-0.92041 -0.666504,-2.323242 0,-1.675781 0.875977,-2.621582 0.875976,-0.952148 2.215332,-0.952148 1.504394,0 2.374023,0.996582 0.869629,0.990234 0.831543,3.040527 h -4.46875 q 0.01904,0.793457 0.431641,1.237793 0.412597,0.437988 1.02832,0.437988 0.418945,0 0.70459,-0.228515 0.285644,-0.228516 0.431641,-0.736328 z m 0.101562,-1.802735 q -0.01904,-0.774414 -0.399902,-1.174316 -0.38086,-0.40625 -0.926758,-0.40625 -0.583985,0 -0.964844,0.425293 -0.380859,0.425293 -0.374512,1.155273 z m 4.932133,3.948242 h -1.783695 v -6.741211 h 1.656735 v 0.958497 q 0.4253,-0.6792 0.76172,-0.89502 0.34277,-0.21582 0.77442,-0.21582 0.60937,0 1.17431,0.336425 l -0.55224,1.555176 q -0.45069,-0.291992 -0.8379,-0.291992 -0.37451,0 -0.63476,0.209473 -0.26025,0.203125 -0.4126,0.742676 -0.14599,0.53955 -0.14599,2.259765 z m 3.69433,-4.957519 v -1.783692 h 1.78369 v 1.783692 z m 0,4.957519 v -1.783691 h 1.78369 v 1.783691 z m 13.56494,-3.421386 1.82178,0.577636 q -0.41894,1.523438 -1.39648,2.266114 -0.9712,0.736328 -2.46924,0.736328 -1.85352,0 -3.04688,-1.263184 -1.19336,-1.269531 -1.19336,-3.46582 0,-2.323242 1.19971,-3.605469 1.19971,-1.288574 3.15479,-1.288574 1.70752,0 2.77392,1.009277 0.63477,0.59668 0.95215,1.713867 l -1.85986,0.444336 q -0.16504,-0.723632 -0.6919,-1.142578 -0.52051,-0.418945 -1.26953,-0.418945 -1.03467,0 -1.68213,0.742676 -0.64111,0.742676 -0.64111,2.405761 0,1.764649 0.63476,2.513672 0.63477,0.749024 1.6504,0.749024 0.74902,0 1.28857,-0.476074 0.53955,-0.476075 0.77441,-1.498047 z m 7.8584,3.421386 V 58.07553 q -0.36816,0.539551 -0.97119,0.850586 -0.59668,0.311035 -1.26318,0.311035 -0.6792,0 -1.21875,-0.29834 -0.53955,-0.29834 -0.78076,-0.83789 -0.24122,-0.539551 -0.24122,-1.4917 v -4.265625 h 1.7837 v 3.097657 q 0,1.421875 0.0952,1.745605 0.10156,0.317383 0.36182,0.507813 0.26025,0.184082 0.66015,0.184082 0.45703,0 0.81885,-0.247559 0.36182,-0.253906 0.49512,-0.62207 0.1333,-0.374512 0.1333,-1.821778 v -2.84375 h 1.78369 v 6.741211 z m 2.87549,-1.923339 1.79004,-0.27295 q 0.11426,0.520508 0.46338,0.793457 0.34912,0.266602 0.97754,0.266602 0.69189,0 1.04101,-0.253906 0.23487,-0.177735 0.23487,-0.476075 0,-0.203125 -0.12696,-0.336425 -0.1333,-0.126953 -0.59668,-0.234864 -2.1582,-0.476074 -2.73584,-0.869629 -0.7998,-0.545898 -0.7998,-1.517089 0,-0.875977 0.69189,-1.472657 0.6919,-0.596679 2.14551,-0.596679 1.38379,0 2.05664,0.450683 0.67285,0.450684 0.92676,1.333008 l -1.68213,0.311035 q -0.10791,-0.393554 -0.4126,-0.603027 -0.29834,-0.209473 -0.85693,-0.209473 -0.70459,0 -1.00928,0.196778 -0.20312,0.139648 -0.20312,0.361816 0,0.19043 0.17773,0.32373 0.24121,0.177735 1.66309,0.501465 1.42822,0.323731 1.99316,0.793457 0.55859,0.476075 0.55859,1.326661 0,0.926757 -0.77441,1.593261 -0.77441,0.666504 -2.2915,0.666504 -1.37744,0 -2.1836,-0.558594 -0.7998,-0.558593 -1.04736,-1.517089 z m 10.94971,-4.817872 v 1.421875 h -1.21875 v 2.716797 q 0,0.825196 0.0317,0.964844 0.0381,0.133301 0.15869,0.222168 0.12695,0.08887 0.30468,0.08887 0.24756,0 0.71729,-0.171386 l 0.15234,1.383789 q -0.62207,0.266601 -1.40918,0.266601 -0.48242,0 -0.86963,-0.158691 -0.3872,-0.165039 -0.57128,-0.418946 -0.17774,-0.260253 -0.24756,-0.698242 -0.0571,-0.311035 -0.0571,-1.256836 v -2.938965 h -0.81885 v -1.421875 h 0.81885 v -1.339355 l 1.79004,-1.041016 v 2.380371 z m 0.82519,3.275391 q 0,-0.888672 0.43799,-1.720215 0.43799,-0.831543 1.23779,-1.269531 0.80616,-0.437988 1.79639,-0.437988 1.52979,0 2.50732,0.996582 0.97754,0.990234 0.97754,2.507324 0,1.529785 -0.99023,2.539062 -0.98389,1.00293 -2.48193,1.00293 -0.92676,0 -1.771,-0.418945 -0.83789,-0.418945 -1.27588,-1.225098 -0.43799,-0.8125 -0.43799,-1.974121 z m 1.82813,0.09522 q 0,1.00293 0.47607,1.536133 0.47608,0.533203 1.17432,0.533203 0.69824,0 1.16797,-0.533203 0.47607,-0.533203 0.47607,-1.548828 0,-0.990235 -0.47607,-1.523438 -0.46973,-0.533203 -1.16797,-0.533203 -0.69824,0 -1.17432,0.533203 -0.47607,0.533203 -0.47607,1.536133 z m 6.39209,-3.370606 h 1.64404 v 0.920411 q 0.88232,-1.072754 2.10107,-1.072754 0.64747,0 1.12354,0.266601 0.47607,0.266602 0.78076,0.806153 0.44434,-0.539551 0.9585,-0.806153 0.51416,-0.266601 1.09814,-0.266601 0.74268,0 1.25684,0.304687 0.51416,0.29834 0.76806,0.882324 0.18409,0.431641 0.18409,1.396485 v 4.310058 h -1.7837 V 55.23178 q 0,-1.00293 -0.18408,-1.294922 -0.24756,-0.380859 -0.76172,-0.380859 -0.37451,0 -0.70459,0.228515 -0.33007,0.228516 -0.47607,0.672852 -0.146,0.437988 -0.146,1.390137 v 3.237304 h -1.78369 v -3.694336 q 0,-0.983886 -0.0952,-1.269531 -0.0952,-0.285644 -0.29834,-0.425293 -0.19678,-0.139648 -0.53955,-0.139648 -0.4126,0 -0.74268,0.222168 -0.33008,0.222168 -0.47607,0.641113 -0.13965,0.418945 -0.13965,1.390137 v 3.27539 h -1.78369 z m 15.59619,4.595704 1.77734,0.298339 q -0.34277,0.977539 -1.08545,1.4917 -0.73633,0.507812 -1.84716,0.507812 -1.75831,0 -2.60254,-1.148926 -0.66651,-0.92041 -0.66651,-2.323242 0,-1.675781 0.87598,-2.621582 0.87598,-0.952148 2.21533,-0.952148 1.5044,0 2.37402,0.996582 0.86963,0.990234 0.83155,3.040527 h -4.46875 q 0.019,0.793457 0.43164,1.237793 0.4126,0.437988 1.02832,0.437988 0.41894,0 0.70459,-0.228515 0.28564,-0.228516 0.43164,-0.736328 z m 0.10156,-1.802735 q -0.019,-0.774414 -0.3999,-1.174316 -0.38086,-0.40625 -0.92676,-0.40625 -0.58398,0 -0.96484,0.425293 -0.38086,0.425293 -0.37451,1.155273 z m 4.93213,3.948242 h -1.78369 v -6.741211 h 1.65674 v 0.958497 q 0.42529,-0.6792 0.76172,-0.89502 0.34277,-0.21582 0.77441,-0.21582 0.60937,0 1.17432,0.336425 L 171.25,54.082854 q -0.45068,-0.291992 -0.83789,-0.291992 -0.37451,0 -0.63477,0.209473 -0.26025,0.203125 -0.41259,0.742676 -0.146,0.53955 -0.146,2.259765 z"
     id="text10"
     style="font-weight:bold;font-size:13px;font-family:Arial;dominant-baseline:central;text-anchor:middle"
     aria-label="customer: Customer" />
  <path
     fill="none"
     stroke="#000000"
     paint-order="fill stroke markers"
     d="M 108.5,83 V 284"
     stroke-miterlimit="10"
     stroke-dasharray="3"
     id="path12" />
  <path
     id="rect13"
     style="fill:#c0c0c0;fill-opacity:0.2"
     d="M 281,49 H 389.82275 V 89 H 281 Z" />
  <path
     id="rect14"
     style="fill:#ffffff"
     d="M 274,42 H 382.82275 V 82 H 274 Z" />
  <path
     fill="none"
     stroke="#000000"
     paint-order="fill stroke markers"
     d="M 274,42 H 382.82275 V 82 H 274 Z"
     stroke-miterlimit="10"
     stroke-dasharray="none"
     id="path15" />
  <path
     fill="none"
     stroke="none"
     id="path16"
     d="" />
  <path
     d="m 287.21045,49.779143 v 3.421387 q 0.86328,-1.009277 2.06299,-1.009277 0.61572,0 1.11084,0.228515 0.49511,0.228516 0.74267,0.583985 0.25391,0.355468 0.34278,0.787109 0.0952,0.431641 0.0952,1.339356 v 3.954589 h -1.78369 v -3.561035 q 0,-1.060058 -0.10156,-1.345703 -0.10157,-0.285644 -0.36182,-0.450683 -0.25391,-0.171387 -0.64111,-0.171387 -0.44434,0 -0.79346,0.21582 -0.34912,0.21582 -0.51416,0.653809 -0.15869,0.43164 -0.15869,1.282226 v 3.376953 h -1.78369 v -9.305664 z m 5.75098,5.839844 q 0,-0.888672 0.43798,-1.720215 0.43799,-0.831543 1.2378,-1.269531 0.80615,-0.437988 1.79638,-0.437988 1.52979,0 2.50733,0.996582 0.97754,0.990234 0.97754,2.507324 0,1.529785 -0.99024,2.539062 -0.98388,1.00293 -2.48193,1.00293 -0.92676,0 -1.771,-0.418945 -0.83789,-0.418945 -1.27588,-1.225098 -0.43798,-0.8125 -0.43798,-1.974121 z m 1.82812,0.09522 q 0,1.00293 0.47607,1.536133 0.47608,0.533203 1.17432,0.533203 0.69824,0 1.16797,-0.533203 0.47607,-0.533203 0.47607,-1.548828 0,-0.990235 -0.47607,-1.523438 -0.46973,-0.533203 -1.16797,-0.533203 -0.69824,0 -1.17432,0.533203 -0.47607,0.533203 -0.47607,1.536133 z m 9.6167,-3.370606 v 1.421875 h -1.21875 v 2.716797 q 0,0.825196 0.0317,0.964844 0.0381,0.133301 0.15869,0.222168 0.12695,0.08887 0.30469,0.08887 0.24756,0 0.71728,-0.171386 l 0.15235,1.383789 q -0.62207,0.266601 -1.40918,0.266601 -0.48243,0 -0.86963,-0.158691 -0.38721,-0.165039 -0.57129,-0.418946 -0.17774,-0.260253 -0.24756,-0.698242 -0.0571,-0.311035 -0.0571,-1.256836 v -2.938965 h -0.81885 v -1.421875 h 0.81885 v -1.339355 l 1.79004,-1.041016 v 2.380371 z m 5.1416,4.595704 1.77735,0.298339 q -0.34278,0.977539 -1.08545,1.4917 -0.73633,0.507812 -1.84717,0.507812 -1.7583,0 -2.60254,-1.148926 -0.6665,-0.92041 -0.6665,-2.323242 0,-1.675781 0.87597,-2.621582 0.87598,-0.952148 2.21533,-0.952148 1.5044,0 2.37403,0.996582 0.86963,0.990234 0.83154,3.040527 h -4.46875 q 0.019,0.793457 0.43164,1.237793 0.4126,0.437988 1.02832,0.437988 0.41895,0 0.70459,-0.228515 0.28565,-0.228516 0.43164,-0.736328 z m 0.10156,-1.802735 q -0.019,-0.774414 -0.3999,-1.174316 -0.38086,-0.40625 -0.92676,-0.40625 -0.58398,0 -0.96484,0.425293 -0.38086,0.425293 -0.37451,1.155273 z m 3.22461,3.948242 v -9.305664 h 1.78369 v 9.305664 z m 3.61817,-9.305664 h 3.43408 q 1.16162,0 1.771,0.177735 0.81884,0.241211 1.40283,0.856933 0.58398,0.615723 0.88867,1.510742 0.30469,0.888672 0.30469,2.19629 0,1.148925 -0.28565,1.980468 -0.34912,1.015625 -0.99658,1.644043 -0.48877,0.476074 -1.32031,0.742676 -0.62207,0.196777 -1.66309,0.196777 h -3.53564 z m 1.8789,1.574219 v 6.163574 h 1.40284 q 0.78711,0 1.13623,-0.08887 0.45703,-0.114258 0.75537,-0.387207 0.30468,-0.272949 0.49511,-0.895019 0.19043,-0.628418 0.19043,-1.70752 0,-1.079102 -0.19043,-1.656738 -0.19043,-0.577637 -0.5332,-0.901367 -0.34277,-0.323731 -0.86963,-0.437989 -0.39355,-0.08887 -1.54248,-0.08887 z m 7.52198,-1.574219 h 3.71972 q 1.1045,0 1.64405,0.09522 0.54589,0.08887 0.97119,0.38086 0.43164,0.291992 0.71728,0.780761 0.28565,0.482422 0.28565,1.085449 0,0.653809 -0.35547,1.199708 -0.34912,0.545898 -0.95215,0.818847 0.85059,0.247559 1.30762,0.844238 0.45703,0.59668 0.45703,1.402832 0,0.634766 -0.29834,1.237793 -0.29199,0.59668 -0.80615,0.958497 -0.50782,0.355468 -1.25684,0.437988 -0.46973,0.05078 -2.26611,0.06348 h -3.16748 z m 1.8789,1.548828 v 2.151856 h 1.23145 q 1.09814,0 1.36474,-0.03174 0.48243,-0.05713 0.75538,-0.330078 0.27929,-0.279297 0.27929,-0.729981 0,-0.431641 -0.24121,-0.698242 -0.23486,-0.272949 -0.70459,-0.330078 -0.2793,-0.03174 -1.60596,-0.03174 z m 0,3.700684 v 2.488281 h 1.73926 q 1.01563,0 1.28857,-0.05713 0.41895,-0.07617 0.6792,-0.368164 0.26661,-0.29834 0.26661,-0.793457 0,-0.418945 -0.20313,-0.710937 -0.20312,-0.291992 -0.59033,-0.425293 -0.38086,-0.133301 -1.66309,-0.133301 z m 7.83301,-0.901367 v -1.783692 h 1.78369 v 1.783692 z m 0,4.957519 v -1.783691 h 1.78369 v 1.783691 z m 9.37549,-9.305664 v 3.421387 q 0.86328,-1.009277 2.06299,-1.009277 0.61572,0 1.11084,0.228515 0.49511,0.228516 0.74267,0.583985 0.25391,0.355468 0.34278,0.787109 0.0952,0.431641 0.0952,1.339356 v 3.954589 h -1.78369 v -3.561035 q 0,-1.060058 -0.10156,-1.345703 -0.10157,-0.285644 -0.36182,-0.450683 -0.25391,-0.171387 -0.64111,-0.171387 -0.44434,0 -0.79346,0.21582 -0.34912,0.21582 -0.51416,0.653809 -0.15869,0.43164 -0.15869,1.282226 v 3.376953 h -1.78369 v -9.305664 z m 5.75098,5.839844 q 0,-0.888672 0.43798,-1.720215 0.43799,-0.831543 1.2378,-1.269531 0.80615,-0.437988 1.79638,-0.437988 1.52979,0 2.50733,0.996582 0.97754,0.990234 0.97754,2.507324 0,1.529785 -0.99024,2.539062 -0.98388,1.00293 -2.48193,1.00293 -0.92676,0 -1.771,-0.418945 -0.83789,-0.418945 -1.27588,-1.225098 -0.43798,-0.8125 -0.43798,-1.974121 z m 1.82812,0.09522 q 0,1.00293 0.47607,1.536133 0.47608,0.533203 1.17432,0.533203 0.69824,0 1.16797,-0.533203 0.47607,-0.533203 0.47607,-1.548828 0,-0.990235 -0.47607,-1.523438 -0.46973,-0.533203 -1.16797,-0.533203 -0.69824,0 -1.17432,0.533203 -0.47607,0.533203 -0.47607,1.536133 z m 9.6167,-3.370606 v 1.421875 h -1.21875 v 2.716797 q 0,0.825196 0.0317,0.964844 0.0381,0.133301 0.15869,0.222168 0.12695,0.08887 0.30469,0.08887 0.24756,0 0.71728,-0.171386 l 0.15235,1.383789 q -0.62207,0.266601 -1.40918,0.266601 -0.48243,0 -0.86963,-0.158691 -0.38721,-0.165039 -0.57129,-0.418946 -0.17774,-0.260253 -0.24756,-0.698242 -0.0571,-0.311035 -0.0571,-1.256836 v -2.938965 h -0.81885 v -1.421875 h 0.81885 v -1.339355 l 1.79004,-1.041016 v 2.380371 z m 5.1416,4.595704 1.77734,0.298339 q -0.34277,0.977539 -1.08544,1.4917 -0.73633,0.507812 -1.84717,0.507812 -1.7583,0 -2.60254,-1.148926 -0.66651,-0.92041 -0.66651,-2.323242 0,-1.675781 0.87598,-2.621582 0.87598,-0.952148 2.21533,-0.952148 1.5044,0 2.37403,0.996582 0.86963,0.990234 0.83154,3.040527 h -4.46875 q 0.019,0.793457 0.43164,1.237793 0.4126,0.437988 1.02832,0.437988 0.41895,0 0.70459,-0.228515 0.28564,-0.228516 0.43164,-0.736328 z m 0.10156,-1.802735 q -0.019,-0.774414 -0.3999,-1.174316 -0.38086,-0.40625 -0.92676,-0.40625 -0.58398,0 -0.96484,0.425293 -0.38086,0.425293 -0.37451,1.155273 z m 3.22461,3.948242 v -9.305664 h 1.78369 v 9.305664 z"
     id="text16"
     style="font-weight:bold;font-size:13px;font-family:Arial;dominant-baseline:central;text-anchor:middle"
     aria-label="hotelDB: hotel" />
  <path
     fill="none"
     stroke="#000000"
     paint-order="fill stroke markers"
     d="M 328.5,83 V 284"
     stroke-miterlimit="10"
     stroke-dasharray="3"
     id="path18" />
  <path
     id="rect19"
     style="fill:#c0c0c0;fill-opacity:0.2"
     d="M 449,49 H 598.3208 V 89 H 449 Z" />
  <path
     id="rect20"
     style="fill:#ffffff"
     d="M 442,42 H 591.3208 V 82 H 442 Z" />
  <path
     fill="none"
     stroke="#000000"
     paint-order="fill stroke markers"
     d="M 442,42 H 591.3208 V 82 H 442 Z"
     stroke-miterlimit="10"
     stroke-dasharray="none"
     id="path21" />
  <path
     fill="none"
     stroke="none"
     id="path22"
     d="" />
  <path
     d="m 452.80469,57.161468 1.79004,-0.27295 q 0.11425,0.520508 0.46338,0.793457 0.34912,0.266602 0.97753,0.266602 0.6919,0 1.04102,-0.253906 0.23486,-0.177735 0.23486,-0.476075 0,-0.203125 -0.12695,-0.336425 -0.1333,-0.126953 -0.59668,-0.234864 -2.1582,-0.476074 -2.73584,-0.869629 -0.7998,-0.545898 -0.7998,-1.517089 0,-0.875977 0.69189,-1.472657 0.6919,-0.596679 2.14551,-0.596679 1.38379,0 2.05664,0.450683 0.67285,0.450684 0.92676,1.333008 l -1.68213,0.311035 q -0.10791,-0.393554 -0.4126,-0.603027 -0.29834,-0.209473 -0.85693,-0.209473 -0.70459,0 -1.00928,0.196778 -0.20313,0.139648 -0.20313,0.361816 0,0.19043 0.17774,0.32373 0.24121,0.177735 1.66308,0.501465 1.42823,0.323731 1.99317,0.793457 0.55859,0.476075 0.55859,1.326661 0,0.926757 -0.77441,1.593261 -0.77442,0.666504 -2.29151,0.666504 -1.37744,0 -2.18359,-0.558594 -0.7998,-0.558593 -1.04736,-1.517089 z m 13.73633,-2.824707 -1.75831,0.317382 q -0.0889,-0.526855 -0.40625,-0.793457 -0.31103,-0.266601 -0.8125,-0.266601 -0.6665,0 -1.0664,0.463379 -0.39356,0.457031 -0.39356,1.536132 0,1.199707 0.39991,1.694825 0.40625,0.495117 1.08545,0.495117 0.50781,0 0.83154,-0.285645 0.32373,-0.291992 0.45703,-0.996582 l 1.75195,0.29834 q -0.27295,1.206055 -1.04736,1.821777 -0.77441,0.615723 -2.07568,0.615723 -1.47901,0 -2.36133,-0.933105 -0.87598,-0.933106 -0.87598,-2.583496 0,-1.669434 0.88233,-2.596192 0.88232,-0.933105 2.38671,-0.933105 1.23145,0 1.95508,0.533203 0.72998,0.526855 1.04737,1.612305 z m 3.12939,-4.557618 v 3.421387 q 0.86328,-1.009277 2.06299,-1.009277 0.61572,0 1.11084,0.228515 0.49512,0.228516 0.74267,0.583985 0.25391,0.355468 0.34278,0.787109 0.0952,0.431641 0.0952,1.339356 v 3.954589 h -1.78369 v -3.561035 q 0,-1.060058 -0.10156,-1.345703 -0.10156,-0.285644 -0.36182,-0.450683 -0.2539,-0.171387 -0.64111,-0.171387 -0.44434,0 -0.79346,0.21582 -0.34912,0.21582 -0.51416,0.653809 -0.15869,0.43164 -0.15869,1.282226 v 3.376953 h -1.78369 v -9.305664 z m 10.06738,7.160157 1.77735,0.298339 q -0.34278,0.977539 -1.08545,1.4917 -0.73633,0.507812 -1.84717,0.507812 -1.7583,0 -2.60254,-1.148926 -0.6665,-0.92041 -0.6665,-2.323242 0,-1.675781 0.87597,-2.621582 0.87598,-0.952148 2.21534,-0.952148 1.50439,0 2.37402,0.996582 0.86963,0.990234 0.83154,3.040527 h -4.46875 q 0.019,0.793457 0.43164,1.237793 0.4126,0.437988 1.02832,0.437988 0.41895,0 0.70459,-0.228515 0.28565,-0.228516 0.43164,-0.736328 z m 0.10157,-1.802735 q -0.019,-0.774414 -0.39991,-1.174316 -0.38086,-0.40625 -0.92675,-0.40625 -0.58399,0 -0.96485,0.425293 -0.38086,0.425293 -0.37451,1.155273 z m 9.40722,3.948242 h -1.65674 v -0.990234 q -0.41259,0.577637 -0.97754,0.863281 -0.55859,0.279297 -1.12988,0.279297 -1.16162,0 -1.99316,-0.933105 -0.8252,-0.939453 -0.8252,-2.615235 0,-1.713867 0.80615,-2.602539 0.80616,-0.895019 2.0376,-0.895019 1.12989,0 1.95508,0.939453 v -3.351563 h 1.78369 z m -4.76074,-3.516601 q 0,1.079101 0.29834,1.561523 0.43164,0.698242 1.20605,0.698242 0.61573,0 1.04737,-0.520507 0.43164,-0.526856 0.43164,-1.567871 0,-1.161622 -0.41895,-1.669434 -0.41894,-0.51416 -1.07275,-0.51416 -0.63477,0 -1.06641,0.507812 -0.42529,0.501465 -0.42529,1.504395 z m 10.95605,3.516601 V 58.07553 q -0.36816,0.539551 -0.97119,0.850586 -0.59668,0.311035 -1.26318,0.311035 -0.6792,0 -1.21875,-0.29834 -0.53955,-0.29834 -0.78076,-0.83789 -0.24121,-0.539551 -0.24121,-1.4917 v -4.265625 h 1.78369 v 3.097657 q 0,1.421875 0.0952,1.745605 0.10157,0.317383 0.36182,0.507813 0.26025,0.184082 0.66016,0.184082 0.45703,0 0.81884,-0.247559 0.36182,-0.253906 0.49512,-0.62207 0.1333,-0.374512 0.1333,-1.821778 v -2.84375 h 1.78369 v 6.741211 z m 3.50391,0 v -9.305664 h 1.78369 v 9.305664 z m 7.51563,-2.145507 1.77734,0.298339 q -0.34277,0.977539 -1.08545,1.4917 -0.73633,0.507812 -1.84717,0.507812 -1.7583,0 -2.60254,-1.148926 -0.6665,-0.92041 -0.6665,-2.323242 0,-1.675781 0.87598,-2.621582 0.87597,-0.952148 2.21533,-0.952148 1.50439,0 2.37402,0.996582 0.86963,0.990234 0.83154,3.040527 h -4.46875 q 0.019,0.793457 0.43164,1.237793 0.4126,0.437988 1.02833,0.437988 0.41894,0 0.70459,-0.228515 0.28564,-0.228516 0.43164,-0.736328 z m 0.10156,-1.802735 q -0.019,-0.774414 -0.3999,-1.174316 -0.38086,-0.40625 -0.92676,-0.40625 -0.58399,0 -0.96485,0.425293 -0.38086,0.425293 -0.37451,1.155273 z m 2.59619,2.024903 1.79004,-0.27295 q 0.11426,0.520508 0.46338,0.793457 0.34912,0.266602 0.97754,0.266602 0.69189,0 1.04101,-0.253906 0.23487,-0.177735 0.23487,-0.476075 0,-0.203125 -0.12696,-0.336425 -0.1333,-0.126953 -0.59668,-0.234864 -2.1582,-0.476074 -2.73584,-0.869629 -0.7998,-0.545898 -0.7998,-1.517089 0,-0.875977 0.69189,-1.472657 0.6919,-0.596679 2.14551,-0.596679 1.38379,0 2.05664,0.450683 0.67285,0.450684 0.92676,1.333008 l -1.68213,0.311035 q -0.10791,-0.393554 -0.4126,-0.603027 -0.29834,-0.209473 -0.85693,-0.209473 -0.70459,0 -1.00928,0.196778 -0.20312,0.139648 -0.20312,0.361816 0,0.19043 0.17773,0.32373 0.24121,0.177735 1.66309,0.501465 1.42822,0.323731 1.99316,0.793457 0.55859,0.476075 0.55859,1.326661 0,0.926757 -0.77441,1.593261 -0.77441,0.666504 -2.2915,0.666504 -1.37744,0 -2.1836,-0.558594 -0.7998,-0.558593 -1.04736,-1.517089 z m 8.20117,-3.03418 v -1.783692 h 1.78369 v 1.783692 z m 0,4.957519 v -1.783691 h 1.78369 v 1.783691 z m 7.13477,-3.027832 1.82812,-0.177734 q 0.16504,0.92041 0.66651,1.352051 0.50781,0.43164 1.36474,0.43164 0.90772,0 1.36475,-0.380859 0.46338,-0.387207 0.46338,-0.901367 0,-0.330078 -0.19678,-0.558594 -0.19043,-0.234863 -0.67285,-0.40625 -0.33008,-0.114258 -1.5044,-0.40625 -1.51074,-0.374512 -2.12011,-0.92041 -0.85694,-0.768066 -0.85694,-1.872559 0,-0.710937 0.39991,-1.32666 0.40625,-0.62207 1.16162,-0.945801 0.76172,-0.32373 1.83447,-0.32373 1.75195,0 2.63428,0.768066 0.88867,0.768067 0.9331,2.050293 l -1.8789,0.08252 q -0.12061,-0.717285 -0.52051,-1.02832 -0.39356,-0.317383 -1.18701,-0.317383 -0.81885,0 -1.28223,0.336425 -0.29834,0.215821 -0.29834,0.577637 0,0.330078 0.2793,0.564942 0.35547,0.298339 1.72656,0.62207 1.37109,0.32373 2.0249,0.672851 0.66016,0.342774 1.02832,0.945801 0.37451,0.59668 0.37451,1.479004 0,0.799805 -0.44433,1.498047 -0.44434,0.698242 -1.25684,1.041016 -0.8125,0.336425 -2.0249,0.336425 -1.76465,0 -2.71045,-0.8125 -0.9458,-0.818847 -1.12988,-2.380371 z m 15.0122,-1.720214 -1.7583,0.317382 q -0.0889,-0.526855 -0.40625,-0.793457 -0.31103,-0.266601 -0.8125,-0.266601 -0.6665,0 -1.0664,0.463379 -0.39356,0.457031 -0.39356,1.536132 0,1.199707 0.3999,1.694825 0.40625,0.495117 1.08545,0.495117 0.50782,0 0.83155,-0.285645 0.32373,-0.291992 0.45703,-0.996582 l 1.75195,0.29834 q -0.27295,1.206055 -1.04736,1.821777 -0.77442,0.615723 -2.07569,0.615723 -1.479,0 -2.36132,-0.933105 -0.87598,-0.933106 -0.87598,-2.583496 0,-1.669434 0.88232,-2.596192 0.88233,-0.933105 2.38672,-0.933105 1.23145,0 1.95508,0.533203 0.72998,0.526855 1.04736,1.612305 z m 3.1294,-4.557618 v 3.421387 q 0.86328,-1.009277 2.06299,-1.009277 0.61572,0 1.11084,0.228515 0.49511,0.228516 0.74267,0.583985 0.25391,0.355468 0.34278,0.787109 0.0952,0.431641 0.0952,1.339356 v 3.954589 h -1.78369 v -3.561035 q 0,-1.060058 -0.10156,-1.345703 -0.10157,-0.285644 -0.36182,-0.450683 -0.25391,-0.171387 -0.64111,-0.171387 -0.44434,0 -0.79346,0.21582 -0.34912,0.21582 -0.51416,0.653809 -0.15869,0.43164 -0.15869,1.282226 v 3.376953 h -1.78369 v -9.305664 z m 10.06738,7.160157 1.77735,0.298339 q -0.34278,0.977539 -1.08545,1.4917 -0.73633,0.507812 -1.84717,0.507812 -1.7583,0 -2.60254,-1.148926 -0.6665,-0.92041 -0.6665,-2.323242 0,-1.675781 0.87597,-2.621582 0.87598,-0.952148 2.21533,-0.952148 1.5044,0 2.37403,0.996582 0.86963,0.990234 0.83154,3.040527 h -4.46875 q 0.019,0.793457 0.43164,1.237793 0.4126,0.437988 1.02832,0.437988 0.41895,0 0.70459,-0.228515 0.28565,-0.228516 0.43164,-0.736328 z m 0.10156,-1.802735 q -0.019,-0.774414 -0.3999,-1.174316 -0.38086,-0.40625 -0.92676,-0.40625 -0.58398,0 -0.96484,0.425293 -0.38086,0.425293 -0.37451,1.155273 z m 9.40723,3.948242 h -1.65674 v -0.990234 q -0.4126,0.577637 -0.97754,0.863281 -0.55859,0.279297 -1.12988,0.279297 -1.16162,0 -1.99316,-0.933105 -0.8252,-0.939453 -0.8252,-2.615235 0,-1.713867 0.80615,-2.602539 0.80616,-0.895019 2.0376,-0.895019 1.12988,0 1.95508,0.939453 v -3.351563 h 1.78369 z m -4.76074,-3.516601 q 0,1.079101 0.29834,1.561523 0.43164,0.698242 1.20605,0.698242 0.61573,0 1.04737,-0.520507 0.43164,-0.526856 0.43164,-1.567871 0,-1.161622 -0.41895,-1.669434 -0.41894,-0.51416 -1.07275,-0.51416 -0.63477,0 -1.06641,0.507812 -0.42529,0.501465 -0.42529,1.504395 z m 10.95605,3.516601 V 58.07553 q -0.36816,0.539551 -0.97119,0.850586 -0.59668,0.311035 -1.26318,0.311035 -0.6792,0 -1.21875,-0.29834 -0.53955,-0.29834 -0.78076,-0.83789 -0.24121,-0.539551 -0.24121,-1.4917 v -4.265625 h 1.78369 v 3.097657 q 0,1.421875 0.0952,1.745605 0.10156,0.317383 0.36182,0.507813 0.26025,0.184082 0.66015,0.184082 0.45704,0 0.81885,-0.247559 0.36182,-0.253906 0.49512,-0.62207 0.1333,-0.374512 0.1333,-1.821778 v -2.84375 h 1.78369 v 6.741211 z m 3.50391,0 v -9.305664 h 1.78369 v 9.305664 z m 7.51562,-2.145507 1.77735,0.298339 q -0.34278,0.977539 -1.08545,1.4917 -0.73633,0.507812 -1.84717,0.507812 -1.7583,0 -2.60254,-1.148926 -0.6665,-0.92041 -0.6665,-2.323242 0,-1.675781 0.87597,-2.621582 0.87598,-0.952148 2.21534,-0.952148 1.50439,0 2.37402,0.996582 0.86963,0.990234 0.83154,3.040527 h -4.46875 q 0.019,0.793457 0.43164,1.237793 0.4126,0.437988 1.02832,0.437988 0.41895,0 0.70459,-0.228515 0.28565,-0.228516 0.43164,-0.736328 z m 0.10157,-1.802735 q -0.019,-0.774414 -0.39991,-1.174316 -0.38085,-0.40625 -0.92675,-0.40625 -0.58399,0 -0.96485,0.425293 -0.38086,0.425293 -0.37451,1.155273 z"
     id="text22"
     style="font-weight:bold;font-size:13px;font-family:Arial;dominant-baseline:central;text-anchor:middle"
     aria-label="schedules: Schedule" />
  <path
     fill="none"
     stroke="#000000"
     paint-order="fill stroke markers"
     d="M 517.5,83 V 196"
     stroke-miterlimit="10"
     stroke-dasharray="3"
     id="path24" />
  <path
     fill="none"
     stroke="#000000"
     paint-order="fill stroke markers"
     d="M 109,114 H 321"
     stroke-miterlimit="10"
     stroke-dasharray="none"
     id="path25" />
  <path
     fill="#000000"
     stroke="none"
     paint-order="stroke fill markers"
     d="M 310.83733,118.20952 321,114 310.83733,109.79048"
     id="path26" />
  <path
     fill="none"
     stroke="#000000"
     paint-order="fill stroke markers"
     d="M 310.83733,118.20952 321,114 310.83733,109.79048 v 8.41904"
     stroke-miterlimit="10"
     stroke-dasharray="none"
     id="path27" />
  <path
     id="rect28"
     style="fill:#ffffff"
     d="m 138,98 h 155.08594 v 13 H 138 Z" />
  <path
     fill="none"
     stroke="none"
     id="path29"
     d="" />
  <path
     d="m 142.84326,108.08481 h -1.14258 v -7.28076 q -0.41259,0.39355 -1.08545,0.78711 -0.6665,0.39355 -1.1997,0.59033 v -1.1045 q 0.95849,-0.45068 1.67578,-1.091792 0.71728,-0.641113 1.01562,-1.244141 h 0.73633 z m 7.17285,-5.43994 v -1.30127 h 1.30127 v 1.30127 z m 0,5.43994 v -1.30127 h 1.30127 v 1.30127 z m 8.77881,0 -2.56445,-6.74121 h 1.20605 l 1.44727,4.03711 q 0.23486,0.6538 0.43164,1.35839 0.15234,-0.5332 0.42529,-1.28222 l 1.49805,-4.11328 h 1.17432 l -2.55176,6.74121 z m 4.63379,-7.9917 v -1.313967 h 1.14258 v 1.313967 z m 0,7.9917 v -6.74121 h 1.14258 v 6.74121 z m 7.49658,-2.1709 1.18067,0.146 q -0.2793,1.03466 -1.03467,1.60595 -0.75537,0.57129 -1.92969,0.57129 -1.479,0 -2.34863,-0.90771 -0.86328,-0.91407 -0.86328,-2.55811 0,-1.70117 0.87597,-2.64062 0.87598,-0.93946 2.27246,-0.93946 1.35206,0 2.20899,0.92041 0.85693,0.92041 0.85693,2.58985 0,0.10156 -0.006,0.30468 h -5.02735 q 0.0635,1.11084 0.62842,1.70118 0.56494,0.59033 1.40918,0.59033 0.62842,0 1.07275,-0.33008 0.44434,-0.33008 0.70459,-1.05371 z m -3.75146,-1.84717 h 3.76416 q -0.0762,-0.85058 -0.43164,-1.27588 -0.5459,-0.66015 -1.41553,-0.66015 -0.78711,0 -1.32666,0.52685 -0.5332,0.52686 -0.59033,1.40918 z m 7.61084,4.01807 -2.06299,-6.74121 h 1.18066 l 1.07276,3.89111 0.3999,1.44727 q 0.0254,-0.10791 0.34912,-1.39014 l 1.07275,-3.94824 h 1.17432 l 1.00928,3.91015 0.33642,1.28858 0.38721,-1.30127 1.15527,-3.89746 h 1.11084 l -2.10742,6.74121 h -1.18701 l -1.07275,-4.03711 -0.26026,-1.14893 -1.36474,5.18604 z m 7.26806,0 3.57373,-9.305667 h 1.32666 l 3.8086,9.305667 h -1.40283 l -1.08545,-2.81836 h -3.89112 l -1.02197,2.81836 z m 2.68506,-3.82129 h 3.15479 l -0.97119,-2.57715 q -0.44434,-1.17432 -0.66016,-1.929688 -0.17773,0.895018 -0.50146,1.777348 z m 8.49951,3.82129 -2.56445,-6.74121 h 1.20606 l 1.44726,4.03711 q 0.23487,0.6538 0.43164,1.35839 0.15235,-0.5332 0.4253,-1.28222 l 1.49804,-4.11328 h 1.17432 l -2.55176,6.74121 z m 9.02637,-0.83155 q -0.63476,0.53956 -1.2251,0.76172 -0.58398,0.22217 -1.25683,0.22217 -1.11084,0 -1.70752,-0.53955 -0.59668,-0.5459 -0.59668,-1.39014 0,-0.49511 0.22217,-0.90136 0.22851,-0.4126 0.59033,-0.66016 0.36816,-0.24756 0.82519,-0.37451 0.33643,-0.0889 1.01563,-0.17139 1.38379,-0.16504 2.0376,-0.39355 0.006,-0.23487 0.006,-0.29834 0,-0.69824 -0.32373,-0.98389 -0.43798,-0.38721 -1.30127,-0.38721 -0.80615,0 -1.19335,0.28565 -0.38086,0.27929 -0.56495,0.99658 l -1.11718,-0.15234 q 0.15234,-0.71729 0.50146,-1.15528 0.34912,-0.44433 1.00928,-0.6792 0.66015,-0.24121 1.52978,-0.24121 0.86328,0 1.40284,0.20313 0.53955,0.20312 0.79345,0.51416 0.25391,0.30469 0.35547,0.77441 0.0571,0.29199 0.0571,1.05371 v 1.52344 q 0,1.59326 0.0698,2.01856 0.0762,0.41894 0.292,0.80615 h -1.19336 q -0.17774,-0.35547 -0.22852,-0.83155 z m -0.0952,-2.55175 q -0.62207,0.2539 -1.86621,0.43164 -0.70459,0.10156 -0.99659,0.22851 -0.29199,0.12696 -0.45068,0.37451 -0.15869,0.24122 -0.15869,0.53956 0,0.45703 0.34277,0.76171 0.34912,0.30469 1.01563,0.30469 0.66015,0 1.17431,-0.28564 0.51416,-0.292 0.75537,-0.79346 0.18409,-0.38721 0.18409,-1.14258 z m 2.93261,-4.6084 v -1.313967 h 1.14258 v 1.313967 z m 0,7.9917 v -6.74121 h 1.14258 v 6.74121 z m 2.85645,0 v -9.305667 h 1.14258 v 9.305667 z m 7.3125,-0.83155 q -0.63477,0.53956 -1.2251,0.76172 -0.58398,0.22217 -1.25683,0.22217 -1.11084,0 -1.70752,-0.53955 -0.59668,-0.5459 -0.59668,-1.39014 0,-0.49511 0.22216,-0.90136 0.22852,-0.4126 0.59034,-0.66016 0.36816,-0.24756 0.82519,-0.37451 0.33643,-0.0889 1.01563,-0.17139 1.38379,-0.16504 2.03759,-0.39355 0.006,-0.23487 0.006,-0.29834 0,-0.69824 -0.32373,-0.98389 -0.43799,-0.38721 -1.30127,-0.38721 -0.80615,0 -1.19336,0.28565 -0.38086,0.27929 -0.56494,0.99658 l -1.11719,-0.15234 q 0.15235,-0.71729 0.50147,-1.15528 0.34912,-0.44433 1.00928,-0.6792 0.66015,-0.24121 1.52978,-0.24121 0.86328,0 1.40283,0.20313 0.53955,0.20312 0.79346,0.51416 0.25391,0.30469 0.35547,0.77441 0.0571,0.29199 0.0571,1.05371 v 1.52344 q 0,1.59326 0.0698,2.01856 0.0762,0.41894 0.29199,0.80615 h -1.19335 q -0.17774,-0.35547 -0.22852,-0.83155 z m -0.0952,-2.55175 q -0.62207,0.2539 -1.86621,0.43164 -0.70459,0.10156 -0.99658,0.22851 -0.29199,0.12696 -0.45068,0.37451 -0.15869,0.24122 -0.15869,0.53956 0,0.45703 0.34277,0.76171 0.34912,0.30469 1.01563,0.30469 0.66015,0 1.17431,-0.28564 0.51416,-0.292 0.75537,-0.79346 0.18408,-0.38721 0.18408,-1.14258 z m 3.97999,3.3833 h -1.06006 v -9.305667 h 1.14257 v 3.319827 q 0.72364,-0.90772 1.84717,-0.90772 0.62207,0 1.17432,0.25391 0.55859,0.24756 0.91406,0.70459 0.36182,0.45068 0.56494,1.0918 0.20313,0.64111 0.20313,1.37109 0,1.73291 -0.85694,2.67871 -0.85693,0.9458 -2.05664,0.9458 -1.19336,0 -1.87255,-0.99658 z m -0.0127,-3.42139 q 0,1.2124 0.33008,1.75195 0.53955,0.88233 1.45996,0.88233 0.74902,0 1.29492,-0.64746 0.5459,-0.65381 0.5459,-1.94239 0,-1.32031 -0.52686,-1.94873 -0.5205,-0.62841 -1.26318,-0.62841 -0.74902,0 -1.29492,0.6538 -0.5459,0.64747 -0.5459,1.87891 z m 6.19531,-4.57031 v -1.313967 h 1.14258 v 1.313967 z m 0,7.9917 v -6.74121 h 1.14258 v 6.74121 z m 2.85645,0 v -9.305667 h 1.14258 v 9.305667 z m 2.91992,-7.9917 v -1.313967 h 1.14258 v 1.313967 z m 0,7.9917 v -6.74121 h 1.14258 v 6.74121 z m 5.37646,-1.02198 0.16504,1.00928 q -0.48242,0.10156 -0.86328,0.10156 -0.62207,0 -0.96484,-0.19677 -0.34278,-0.19678 -0.48242,-0.51416 -0.13965,-0.32373 -0.13965,-1.35205 v -3.87842 h -0.83789 v -0.88867 h 0.83789 v -1.669437 l 1.13623,-0.685547 v 2.354984 h 1.14892 v 0.88867 h -1.14892 v 3.94189 q 0,0.48877 0.0571,0.62842 0.0635,0.13965 0.19677,0.22217 0.13965,0.0825 0.39356,0.0825 0.19043,0 0.50146,-0.0444 z m 1.06641,3.61817 -0.12695,-1.07276 q 0.37451,0.10157 0.65381,0.10157 0.38086,0 0.60937,-0.12696 0.22852,-0.12695 0.37451,-0.35546 0.10791,-0.17139 0.34912,-0.85059 0.0317,-0.0952 0.10157,-0.2793 l -2.55811,-6.7539 h 1.23145 l 1.40283,3.90381 q 0.27295,0.74267 0.48877,1.56152 0.19678,-0.78711 0.46972,-1.53613 l 1.44092,-3.9292 h 1.14258 l -2.56445,6.85547 q -0.4126,1.11084 -0.64112,1.52978 -0.30468,0.56494 -0.69824,0.8252 -0.39355,0.2666 -0.93945,0.2666 -0.33008,0 -0.73633,-0.13965 z m 8.73438,0.13965 q -0.94581,-1.19336 -1.59961,-2.79297 -0.65381,-1.59961 -0.65381,-3.31348 0,-1.51074 0.48877,-2.89453 0.57129,-1.60596 1.76465,-3.199218 h 0.81884 q -0.76806,1.320312 -1.01562,1.885258 -0.38721,0.87597 -0.60938,1.82812 -0.27295,1.18701 -0.27295,2.38672 0,3.05322 1.89795,6.1001 z m 1.68847,-4.74805 1.12988,-0.17773 q 0.0952,0.6792 0.52686,1.04101 0.43799,0.36182 1.21875,0.36182 0.78711,0 1.16797,-0.31738 0.38086,-0.32374 0.38086,-0.75538 0,-0.3872 -0.33643,-0.60937 -0.23486,-0.15234 -1.16797,-0.38721 -1.25683,-0.31738 -1.7456,-0.5459 -0.48242,-0.23486 -0.73633,-0.64111 -0.24756,-0.4126 -0.24756,-0.90771 0,-0.45069 0.20313,-0.83155 0.20947,-0.3872 0.56494,-0.64111 0.2666,-0.19678 0.72363,-0.33008 0.46338,-0.13965 0.99024,-0.13965 0.79345,0 1.39013,0.22852 0.60303,0.22851 0.88867,0.62207 0.28565,0.38721 0.39356,1.04101 l -1.11719,0.15235 q -0.0762,-0.52051 -0.44433,-0.8125 -0.36182,-0.29199 -1.02833,-0.29199 -0.7871,0 -1.12353,0.26025 -0.33643,0.26025 -0.33643,0.60937 0,0.22217 0.13965,0.39991 0.13965,0.18408 0.43799,0.30468 0.17139,0.0635 1.00928,0.292 1.2124,0.32373 1.68847,0.5332 0.48243,0.20312 0.75538,0.59668 0.27294,0.39355 0.27294,0.97754 0,0.57129 -0.33642,1.0791 -0.33008,0.50147 -0.9585,0.78076 -0.62841,0.27295 -1.42187,0.27295 -1.31397,0 -2.00586,-0.5459 -0.68555,-0.5459 -0.87598,-1.61865 z m 11.57178,-0.15869 1.18066,0.146 q -0.27929,1.03466 -1.03466,1.60595 -0.75538,0.57129 -1.92969,0.57129 -1.47901,0 -2.34863,-0.90771 -0.86329,-0.91407 -0.86329,-2.55811 0,-1.70117 0.87598,-2.64062 0.87598,-0.93946 2.27246,-0.93946 1.35205,0 2.20899,0.92041 0.85693,0.92041 0.85693,2.58985 0,0.10156 -0.006,0.30468 h -5.02734 q 0.0635,1.11084 0.62842,1.70118 0.56494,0.59033 1.40918,0.59033 0.62841,0 1.07275,-0.33008 0.44434,-0.33008 0.70459,-1.05371 z m -3.75147,-1.84717 h 3.76416 q -0.0762,-0.85058 -0.43164,-1.27588 -0.54589,-0.66015 -1.41552,-0.66015 -0.78711,0 -1.32666,0.52685 -0.53321,0.52686 -0.59034,1.40918 z m 6.35401,4.01807 v -6.74121 h 1.02832 v 1.02197 q 0.39355,-0.71729 0.72363,-0.9458 0.33643,-0.22852 0.73633,-0.22852 0.57764,0 1.17432,0.36817 l -0.39356,1.06006 q -0.41894,-0.24756 -0.83789,-0.24756 -0.37451,0 -0.67285,0.22851 -0.29834,0.22217 -0.42529,0.62207 -0.19043,0.60938 -0.19043,1.33301 v 3.5293 z m 6.21435,0 -2.56445,-6.74121 h 1.20606 l 1.44726,4.03711 q 0.23486,0.6538 0.43164,1.35839 0.15235,-0.5332 0.42529,-1.28222 l 1.49805,-4.11328 h 1.17432 l -2.55176,6.74121 z m 4.63379,-7.9917 v -1.313967 h 1.14258 v 1.313967 z m 0,7.9917 v -6.74121 h 1.14258 v 6.74121 z m 7.28076,-2.46924 1.12354,0.146 q -0.18408,1.16162 -0.9458,1.82177 -0.75537,0.65381 -1.85986,0.65381 -1.38379,0 -2.22803,-0.90137 -0.83789,-0.90771 -0.83789,-2.59619 0,-1.09179 0.36181,-1.91064 0.36182,-0.81885 1.09815,-1.2251 0.74267,-0.4126 1.6123,-0.4126 1.09815,0 1.79639,0.5586 0.69824,0.55224 0.89502,1.57422 l -1.11084,0.17138 q -0.15869,-0.6792 -0.56494,-1.02197 -0.3999,-0.34277 -0.97119,-0.34277 -0.86328,0 -1.40283,0.62207 -0.53956,0.61572 -0.53956,1.95507 0,1.3584 0.52051,1.97413 0.52051,0.61572 1.3584,0.61572 0.67285,0 1.12354,-0.4126 0.45068,-0.4126 0.57128,-1.26953 z m 6.71583,0.29834 1.18066,0.146 q -0.2793,1.03466 -1.03467,1.60595 -0.75537,0.57129 -1.92969,0.57129 -1.479,0 -2.34863,-0.90771 -0.86328,-0.91407 -0.86328,-2.55811 0,-1.70117 0.87598,-2.64062 0.87597,-0.93946 2.27246,-0.93946 1.35205,0 2.20898,0.92041 0.85694,0.92041 0.85694,2.58985 0,0.10156 -0.006,0.30468 h -5.02735 q 0.0635,1.11084 0.62842,1.70118 0.56494,0.59033 1.40918,0.59033 0.62842,0 1.07276,-0.33008 0.44433,-0.33008 0.70459,-1.05371 z m -3.75147,-1.84717 h 3.76416 q -0.0762,-0.85058 -0.43164,-1.27588 -0.5459,-0.66015 -1.41553,-0.66015 -0.78711,0 -1.32666,0.52685 -0.5332,0.52686 -0.59033,1.40918 z m 7.11572,6.75391 h -0.81884 q 1.89794,-3.04688 1.89794,-6.1001 0,-1.19336 -0.27294,-2.36768 -0.21583,-0.95215 -0.60303,-1.82812 -0.24756,-0.57129 -1.02197,-1.904298 h 0.81884 q 1.19336,1.593258 1.76465,3.199218 0.48877,1.38379 0.48877,2.89453 0,1.71387 -0.66016,3.31348 -0.6538,1.59961 -1.59326,2.79297 z"
     id="text29"
     style="font-size:13px;font-family:Arial;dominant-baseline:central;text-anchor:middle"
     aria-label="1 : viewAvailability(service)" />
  <path
     id="rect31"
     style="fill:#ffffff"
     d="m 321,114 h 14 v 79 h -14 z" />
  <path
     fill="none"
     stroke="#000000"
     paint-order="fill stroke markers"
     d="m 321,114 h 14 v 79 h -14 z"
     stroke-miterlimit="10"
     stroke-dasharray="none"
     id="path32" />
  <path
     fill="none"
     stroke="#000000"
     paint-order="fill stroke markers"
     d="M 335,154 H 510"
     stroke-miterlimit="10"
     stroke-dasharray="none"
     id="path33" />
  <path
     fill="#000000"
     stroke="none"
     paint-order="stroke fill markers"
     d="M 499.83733,158.20952 510,154 499.83733,149.79048"
     id="path34" />
  <path
     fill="none"
     stroke="#000000"
     paint-order="fill stroke markers"
     d="M 499.83733,158.20952 510,154 499.83733,149.79048 v 8.41904"
     stroke-miterlimit="10"
     stroke-dasharray="none"
     id="path35" />
  <path
     id="rect36"
     style="fill:#ffffff"
     d="m 349,138 h 146.68164 v 13 H 349 Z" />
  <path
     fill="none"
     stroke="none"
     id="path37"
     d="" />
  <path
     d="m 355.54443,146.98666 v 1.09815 h -6.15088 q -0.0127,-0.4126 0.13331,-0.79346 0.23486,-0.62842 0.74902,-1.23779 0.52051,-0.60938 1.49805,-1.40918 1.51709,-1.24414 2.05029,-1.96778 0.5332,-0.72998 0.5332,-1.37744 0,-0.6792 -0.48877,-1.14258 -0.48242,-0.46972 -1.26318,-0.46972 -0.8252,0 -1.32031,0.49512 -0.49512,0.49511 -0.50147,1.37109 l -1.17432,-0.12061 q 0.12061,-1.31396 0.90772,-1.99951 0.78711,-0.69189 2.11377,-0.69189 1.33935,0 2.12012,0.74267 0.78076,0.74268 0.78076,1.84082 0,0.5586 -0.22852,1.09815 -0.22851,0.53955 -0.76172,1.13623 -0.52685,0.59668 -1.7583,1.63769 -1.02832,0.86329 -1.32031,1.17432 -0.29199,0.30469 -0.48242,0.61572 z m 5.47168,-4.34179 v -1.30127 h 1.30127 v 1.30127 z m 0,5.43994 v -1.30127 h 1.30127 v 1.30127 z m 6.69678,0.55859 1.11084,0.16504 q 0.0698,0.51416 0.38721,0.74902 0.42529,0.31739 1.16162,0.31739 0.79346,0 1.2251,-0.31739 0.43164,-0.31738 0.58398,-0.88867 0.0889,-0.34912 0.0825,-1.46631 -0.74902,0.88233 -1.86621,0.88233 -1.39014,0 -2.15186,-1.00293 -0.76172,-1.00293 -0.76172,-2.40576 0,-0.96485 0.34913,-1.77735 0.34912,-0.81885 1.00927,-1.26318 0.66651,-0.44434 1.56153,-0.44434 1.19336,0 1.96777,0.96485 v -0.8125 h 1.05371 v 5.82714 q 0,1.57422 -0.32373,2.22803 -0.31738,0.66016 -1.01562,1.04102 -0.6919,0.38086 -1.70752,0.38086 -1.20606,0 -1.94873,-0.5459 -0.74268,-0.53955 -0.71729,-1.63135 z m 0.9458,-4.0498 q 0,1.32666 0.52686,1.93603 0.52685,0.60938 1.32031,0.60938 0.78711,0 1.32031,-0.60303 0.5332,-0.60938 0.5332,-1.9043 0,-1.23779 -0.55224,-1.86621 -0.5459,-0.62842 -1.32031,-0.62842 -0.76172,0 -1.29493,0.62207 -0.5332,0.61573 -0.5332,1.83448 z m 11.1084,1.32031 1.18066,0.146 q -0.27929,1.03466 -1.03466,1.60595 -0.75538,0.57129 -1.92969,0.57129 -1.47901,0 -2.34863,-0.90771 -0.86329,-0.91407 -0.86329,-2.55811 0,-1.70117 0.87598,-2.64062 0.87598,-0.93946 2.27246,-0.93946 1.35205,0 2.20899,0.92041 0.85693,0.92041 0.85693,2.58985 0,0.10156 -0.006,0.30468 h -5.02734 q 0.0635,1.11084 0.62842,1.70118 0.56494,0.59033 1.40918,0.59033 0.62841,0 1.07275,-0.33008 0.44434,-0.33008 0.70459,-1.05371 z m -3.75147,-1.84717 h 3.76417 q -0.0762,-0.85058 -0.43165,-1.27588 -0.54589,-0.66015 -1.41552,-0.66015 -0.78711,0 -1.32666,0.52685 -0.53321,0.52686 -0.59034,1.40918 z m 8.86133,2.99609 0.16504,1.00928 q -0.48242,0.10156 -0.86328,0.10156 -0.62207,0 -0.96484,-0.19677 -0.34278,-0.19678 -0.48242,-0.51416 -0.13965,-0.32373 -0.13965,-1.35205 v -3.87842 h -0.83789 v -0.88867 h 0.83789 v -1.66944 l 1.13623,-0.68554 v 2.35498 h 1.14892 v 0.88867 h -1.14892 v 3.94189 q 0,0.48877 0.0571,0.62842 0.0635,0.13965 0.19677,0.22217 0.13965,0.0825 0.39356,0.0825 0.19043,0 0.50146,-0.0444 z m 0.84424,-1.96777 1.16162,-0.10156 q 0.0825,0.69824 0.38086,1.14892 0.30469,0.44434 0.93945,0.72364 0.63477,0.27295 1.42823,0.27295 0.70459,0 1.24414,-0.20948 0.53955,-0.20947 0.7998,-0.57129 0.2666,-0.36816 0.2666,-0.7998 0,-0.43799 -0.2539,-0.76172 -0.25391,-0.33008 -0.83789,-0.55224 -0.37451,-0.146 -1.65674,-0.45069 -1.28223,-0.31103 -1.79639,-0.58398 -0.6665,-0.34912 -0.99658,-0.86328 -0.32373,-0.52051 -0.32373,-1.16162 0,-0.70459 0.3999,-1.31397 0.3999,-0.61572 1.16797,-0.93311 0.76807,-0.31738 1.70752,-0.31738 1.03467,0 1.82178,0.33643 0.79346,0.33008 1.21875,0.97754 0.42529,0.64746 0.45703,1.46631 l -1.18066,0.0889 q -0.0952,-0.88232 -0.64747,-1.33301 -0.54589,-0.45068 -1.61865,-0.45068 -1.11719,0 -1.63135,0.4126 -0.50781,0.40625 -0.50781,0.98389 0,0.50146 0.36182,0.82519 0.35547,0.32373 1.85351,0.6665 1.5044,0.33643 2.06299,0.59034 0.8125,0.37451 1.19971,0.95215 0.38721,0.57128 0.38721,1.32031 0,0.74267 -0.4253,1.40283 -0.42529,0.65381 -1.22509,1.02197 -0.79346,0.36182 -1.79004,0.36182 -1.26319,0 -2.12012,-0.36817 -0.85059,-0.36816 -1.33936,-1.10449 -0.48242,-0.74267 -0.50781,-1.67578 z m 13.34277,0.52051 1.12354,0.146 q -0.18408,1.16162 -0.9458,1.82177 -0.75537,0.65381 -1.85986,0.65381 -1.38379,0 -2.22803,-0.90137 -0.83789,-0.90771 -0.83789,-2.59619 0,-1.09179 0.36181,-1.91064 0.36182,-0.81885 1.09815,-1.2251 0.74267,-0.4126 1.6123,-0.4126 1.09815,0 1.79639,0.5586 0.69824,0.55224 0.89502,1.57422 l -1.11084,0.17138 q -0.15869,-0.6792 -0.56494,-1.02197 -0.3999,-0.34277 -0.97119,-0.34277 -0.86328,0 -1.40283,0.62207 -0.53956,0.61572 -0.53956,1.95507 0,1.3584 0.52051,1.97413 0.52051,0.61572 1.3584,0.61572 0.67285,0 1.12354,-0.4126 0.45068,-0.4126 0.57128,-1.26953 z m 2.10108,2.46924 v -9.30567 h 1.14258 v 3.33887 q 0.7998,-0.92676 2.01855,-0.92676 0.74903,0 1.30127,0.29834 0.55225,0.29199 0.78711,0.8125 0.24121,0.52051 0.24121,1.51074 v 4.27198 h -1.14258 v -4.27198 q 0,-0.85693 -0.37451,-1.24414 -0.36816,-0.39355 -1.04736,-0.39355 -0.50781,0 -0.9585,0.2666 -0.44433,0.26025 -0.63476,0.71094 -0.19043,0.45068 -0.19043,1.24414 v 3.68799 z m 11.84473,-2.1709 1.18066,0.146 q -0.2793,1.03466 -1.03467,1.60595 -0.75537,0.57129 -1.92969,0.57129 -1.479,0 -2.34863,-0.90771 -0.86328,-0.91407 -0.86328,-2.55811 0,-1.70117 0.87598,-2.64062 0.87597,-0.93946 2.27246,-0.93946 1.35205,0 2.20898,0.92041 0.85694,0.92041 0.85694,2.58985 0,0.10156 -0.006,0.30468 h -5.02735 q 0.0635,1.11084 0.62842,1.70118 0.56494,0.59033 1.40918,0.59033 0.62842,0 1.07276,-0.33008 0.44433,-0.33008 0.70459,-1.05371 z m -3.75147,-1.84717 h 3.76416 q -0.0762,-0.85058 -0.43164,-1.27588 -0.5459,-0.66015 -1.41553,-0.66015 -0.78711,0 -1.32666,0.52685 -0.5332,0.52686 -0.59033,1.40918 z m 10.74024,4.01807 v -0.85059 q -0.64112,1.00293 -1.88526,1.00293 -0.80615,0 -1.48535,-0.44433 -0.67285,-0.44434 -1.04736,-1.2378 -0.36817,-0.7998 -0.36817,-1.83447 0,-1.00928 0.33643,-1.82813 0.33642,-0.82519 1.00928,-1.26318 0.67285,-0.43799 1.50439,-0.43799 0.60937,0 1.08545,0.26026 0.47607,0.2539 0.77441,0.6665 v -3.33887 h 1.13623 v 9.30567 z m -3.61182,-3.36426 q 0,1.29492 0.5459,1.93603 0.5459,0.64112 1.28857,0.64112 0.74902,0 1.26953,-0.60938 0.52686,-0.61572 0.52686,-1.87256 0,-1.38378 -0.53321,-2.03125 -0.5332,-0.64746 -1.31396,-0.64746 -0.76172,0 -1.27588,0.62207 -0.50781,0.62207 -0.50781,1.96143 z m 10.88623,3.36426 v -0.99024 q -0.78711,1.14258 -2.13916,1.14258 -0.59668,0 -1.11719,-0.22851 -0.51416,-0.22852 -0.76806,-0.57129 -0.24756,-0.34912 -0.34913,-0.85059 -0.0698,-0.33643 -0.0698,-1.06641 v -4.17675 h 1.14258 v 3.73877 q 0,0.89502 0.0698,1.20605 0.10791,0.45068 0.45703,0.71094 0.34912,0.2539 0.86328,0.2539 0.51416,0 0.96485,-0.26025 0.45068,-0.2666 0.63476,-0.71728 0.19043,-0.45704 0.19043,-1.32032 v -3.61181 h 1.14258 v 6.74121 z m 2.78662,0 v -9.30567 h 1.14258 v 9.30567 z m 7.52832,-2.1709 1.18066,0.146 q -0.27929,1.03466 -1.03466,1.60595 -0.75537,0.57129 -1.92969,0.57129 -1.479,0 -2.34863,-0.90771 -0.86328,-0.91407 -0.86328,-2.55811 0,-1.70117 0.87597,-2.64062 0.87598,-0.93946 2.27246,-0.93946 1.35205,0 2.20899,0.92041 0.85693,0.92041 0.85693,2.58985 0,0.10156 -0.006,0.30468 h -5.02734 q 0.0635,1.11084 0.62842,1.70118 0.56494,0.59033 1.40918,0.59033 0.62841,0 1.07275,-0.33008 0.44434,-0.33008 0.70459,-1.05371 z m -3.75146,-1.84717 h 3.76416 q -0.0762,-0.85058 -0.43164,-1.27588 -0.5459,-0.66015 -1.41553,-0.66015 -0.78711,0 -1.32666,0.52685 -0.53321,0.52686 -0.59033,1.40918 z m 5.90966,2.00586 1.12989,-0.17773 q 0.0952,0.6792 0.52685,1.04101 0.43799,0.36182 1.21875,0.36182 0.78711,0 1.16797,-0.31738 0.38086,-0.32374 0.38086,-0.75538 0,-0.3872 -0.33643,-0.60937 -0.23486,-0.15234 -1.16796,-0.38721 -1.25684,-0.31738 -1.74561,-0.5459 -0.48242,-0.23486 -0.73633,-0.64111 -0.24756,-0.4126 -0.24756,-0.90771 0,-0.45069 0.20313,-0.83155 0.20947,-0.3872 0.56494,-0.64111 0.2666,-0.19678 0.72363,-0.33008 0.46338,-0.13965 0.99024,-0.13965 0.79345,0 1.39013,0.22852 0.60303,0.22851 0.88868,0.62207 0.28564,0.38721 0.39355,1.04101 l -1.11719,0.15235 q -0.0762,-0.52051 -0.44433,-0.8125 -0.36182,-0.29199 -1.02832,-0.29199 -0.78711,0 -1.12354,0.26025 -0.33642,0.26025 -0.33642,0.60937 0,0.22217 0.13964,0.39991 0.13965,0.18408 0.43799,0.30468 0.17139,0.0635 1.00928,0.292 1.2124,0.32373 1.68848,0.5332 0.48242,0.20312 0.75537,0.59668 0.27295,0.39355 0.27295,0.97754 0,0.57129 -0.33643,1.0791 -0.33008,0.50147 -0.9585,0.78076 -0.62841,0.27295 -1.42187,0.27295 -1.31397,0 -2.00586,-0.5459 -0.68555,-0.5459 -0.87598,-1.61865 z m 9.14063,4.74805 q -0.9458,-1.19336 -1.59961,-2.79297 -0.65381,-1.59961 -0.65381,-3.31348 0,-1.51074 0.48877,-2.89453 0.57129,-1.60596 1.76465,-3.19922 h 0.81885 q -0.76807,1.32031 -1.01563,1.88526 -0.38721,0.87597 -0.60937,1.82812 -0.27295,1.18701 -0.27295,2.38672 0,3.05322 1.89795,6.1001 z m 1.68848,-4.74805 1.12988,-0.17773 q 0.0952,0.6792 0.52685,1.04101 0.43799,0.36182 1.21875,0.36182 0.78711,0 1.16797,-0.31738 0.38086,-0.32374 0.38086,-0.75538 0,-0.3872 -0.33642,-0.60937 -0.23487,-0.15234 -1.16797,-0.38721 -1.25684,-0.31738 -1.74561,-0.5459 -0.48242,-0.23486 -0.73633,-0.64111 -0.24756,-0.4126 -0.24756,-0.90771 0,-0.45069 0.20313,-0.83155 0.20947,-0.3872 0.56494,-0.64111 0.2666,-0.19678 0.72363,-0.33008 0.46338,-0.13965 0.99024,-0.13965 0.79346,0 1.39014,0.22852 0.60302,0.22851 0.88867,0.62207 0.28564,0.38721 0.39355,1.04101 l -1.11719,0.15235 q -0.0762,-0.52051 -0.44433,-0.8125 -0.36182,-0.29199 -1.02832,-0.29199 -0.78711,0 -1.12354,0.26025 -0.33642,0.26025 -0.33642,0.60937 0,0.22217 0.13965,0.39991 0.13964,0.18408 0.43798,0.30468 0.17139,0.0635 1.00928,0.292 1.2124,0.32373 1.68848,0.5332 0.48242,0.20312 0.75537,0.59668 0.27295,0.39355 0.27295,0.97754 0,0.57129 -0.33643,1.0791 -0.33008,0.50147 -0.95849,0.78076 -0.62842,0.27295 -1.42188,0.27295 -1.31396,0 -2.00586,-0.5459 -0.68555,-0.5459 -0.87597,-1.61865 z m 11.57177,-0.15869 1.18067,0.146 q -0.2793,1.03466 -1.03467,1.60595 -0.75537,0.57129 -1.92969,0.57129 -1.479,0 -2.34863,-0.90771 -0.86328,-0.91407 -0.86328,-2.55811 0,-1.70117 0.87597,-2.64062 0.87598,-0.93946 2.27246,-0.93946 1.35206,0 2.20899,0.92041 0.85693,0.92041 0.85693,2.58985 0,0.10156 -0.006,0.30468 h -5.02734 q 0.0635,1.11084 0.62842,1.70118 0.56494,0.59033 1.40918,0.59033 0.62842,0 1.07275,-0.33008 0.44434,-0.33008 0.70459,-1.05371 z m -3.75146,-1.84717 h 3.76416 q -0.0762,-0.85058 -0.43164,-1.27588 -0.5459,-0.66015 -1.41553,-0.66015 -0.78711,0 -1.32666,0.52685 -0.5332,0.52686 -0.59033,1.40918 z m 6.354,4.01807 v -6.74121 h 1.02832 v 1.02197 q 0.39356,-0.71729 0.72363,-0.9458 0.33643,-0.22852 0.73633,-0.22852 0.57764,0 1.17432,0.36817 l -0.39356,1.06006 q -0.41894,-0.24756 -0.83789,-0.24756 -0.37451,0 -0.67285,0.22851 -0.29834,0.22217 -0.42529,0.62207 -0.19043,0.60938 -0.19043,1.33301 v 3.5293 z m 6.21436,0 -2.56446,-6.74121 h 1.20606 l 1.44726,4.03711 q 0.23487,0.6538 0.43164,1.35839 0.15235,-0.5332 0.4253,-1.28222 l 1.49804,-4.11328 h 1.17432 l -2.55176,6.74121 z m 4.63379,-7.9917 v -1.31397 h 1.14257 v 1.31397 z m 0,7.9917 v -6.74121 h 1.14257 v 6.74121 z m 7.28076,-2.46924 1.12353,0.146 q -0.18408,1.16162 -0.9458,1.82177 -0.75537,0.65381 -1.85986,0.65381 -1.38379,0 -2.22803,-0.90137 -0.83789,-0.90771 -0.83789,-2.59619 0,-1.09179 0.36182,-1.91064 0.36181,-0.81885 1.09814,-1.2251 0.74268,-0.4126 1.61231,-0.4126 1.09814,0 1.79638,0.5586 0.69825,0.55224 0.89502,1.57422 l -1.11084,0.17138 q -0.15869,-0.6792 -0.56494,-1.02197 -0.3999,-0.34277 -0.97119,-0.34277 -0.86328,0 -1.40283,0.62207 -0.53955,0.61572 -0.53955,1.95507 0,1.3584 0.52051,1.97413 0.5205,0.61572 1.35839,0.61572 0.67286,0 1.12354,-0.4126 0.45068,-0.4126 0.57129,-1.26953 z m 6.71582,0.29834 1.18066,0.146 q -0.27929,1.03466 -1.03467,1.60595 -0.75537,0.57129 -1.92968,0.57129 -1.47901,0 -2.34864,-0.90771 -0.86328,-0.91407 -0.86328,-2.55811 0,-1.70117 0.87598,-2.64062 0.87598,-0.93946 2.27246,-0.93946 1.35205,0 2.20898,0.92041 0.85694,0.92041 0.85694,2.58985 0,0.10156 -0.006,0.30468 h -5.02734 q 0.0635,1.11084 0.62841,1.70118 0.56495,0.59033 1.40918,0.59033 0.62842,0 1.07276,-0.33008 0.44433,-0.33008 0.70459,-1.05371 z m -3.75147,-1.84717 h 3.76416 q -0.0762,-0.85058 -0.43164,-1.27588 -0.5459,-0.66015 -1.41552,-0.66015 -0.78711,0 -1.32666,0.52685 -0.53321,0.52686 -0.59034,1.40918 z m 7.11573,6.75391 h -0.81885 q 1.89795,-3.04688 1.89795,-6.1001 0,-1.19336 -0.27295,-2.36768 -0.21582,-0.95214 -0.60303,-1.82812 -0.24756,-0.57129 -1.02197,-1.9043 h 0.81885 q 1.19336,1.59326 1.76464,3.19922 0.48877,1.38379 0.48877,2.89453 0,1.71387 -0.66015,3.31348 -0.65381,1.59961 -1.59326,2.79297 z"
     id="text37"
     style="font-size:13px;font-family:Arial;dominant-baseline:central;text-anchor:middle"
     aria-label="2 : getSchedules(service)" />
  <path
     id="rect39"
     style="fill:#ffffff"
     d="m 510,154 h 14 v 28 h -14 z" />
  <path
     fill="none"
     stroke="#000000"
     paint-order="fill stroke markers"
     d="m 510,154 h 14 v 28 h -14 z"
     stroke-miterlimit="10"
     stroke-dasharray="none"
     id="path40" />
  <path
     fill="none"
     stroke="#000000"
     paint-order="fill stroke markers"
     d="m 335,186 h 30 v 20 h -30"
     stroke-miterlimit="10"
     stroke-dasharray="none"
     id="path41" />
  <path
     fill="#000000"
     stroke="none"
     paint-order="stroke fill markers"
     d="M 345.16267,201.79048 335,206 l 10.16267,4.20952"
     id="path42" />
  <path
     fill="none"
     stroke="#000000"
     paint-order="fill stroke markers"
     d="M 345.16267,201.79048 335,206 l 10.16267,4.20952 v -8.41904"
     stroke-miterlimit="10"
     stroke-dasharray="none"
     id="path43" />
  <path
     id="rect44"
     style="fill:#ffffff"
     d="m 296,189 h 156.08887 v 13 H 296 Z" />
  <path
     fill="none"
     stroke="none"
     id="path45"
     d="" />
  <path
     d="m 296.5459,196.62826 1.14258,-0.15234 q 0.19677,0.97119 0.6665,1.40283 0.47607,0.4253 1.15527,0.4253 0.80616,0 1.3584,-0.5586 0.5586,-0.55859 0.5586,-1.38379 0,-0.78711 -0.51416,-1.29492 -0.51416,-0.51416 -1.30762,-0.51416 -0.32373,0 -0.80615,0.12695 l 0.12695,-1.00293 q 0.11426,0.0127 0.18408,0.0127 0.72998,0 1.31397,-0.38086 0.58398,-0.38086 0.58398,-1.17432 0,-0.62841 -0.42529,-1.04101 -0.4253,-0.4126 -1.09815,-0.4126 -0.6665,0 -1.11084,0.41895 -0.44433,0.41894 -0.57129,1.25683 l -1.14257,-0.20312 q 0.20947,-1.14893 0.95214,-1.77735 0.74268,-0.63476 1.84717,-0.63476 0.76172,0 1.40283,0.33008 0.64112,0.32373 0.97754,0.88867 0.34278,0.56494 0.34278,1.1997 0,0.60303 -0.32373,1.09815 -0.32373,0.49512 -0.9585,0.78711 0.8252,0.19043 1.28223,0.79346 0.45703,0.59668 0.45703,1.49804 0,1.21875 -0.88867,2.06934 -0.88868,0.84424 -2.24707,0.84424 -1.2251,0 -2.0376,-0.72998 -0.80615,-0.72998 -0.92041,-1.89161 z m 11.47021,-2.98339 v -1.30127 h 1.30127 v 1.30127 z m 0,5.43994 v -1.30127 h 1.30127 v 1.30127 z m 11.30518,-0.83155 q -0.63477,0.53956 -1.2251,0.76172 -0.58398,0.22217 -1.25683,0.22217 -1.11084,0 -1.70752,-0.53955 -0.59668,-0.5459 -0.59668,-1.39014 0,-0.49511 0.22216,-0.90136 0.22852,-0.4126 0.59034,-0.66016 0.36816,-0.24756 0.82519,-0.37451 0.33643,-0.0889 1.01563,-0.17139 1.38379,-0.16504 2.03759,-0.39355 0.006,-0.23487 0.006,-0.29834 0,-0.69824 -0.32373,-0.98389 -0.43799,-0.38721 -1.30127,-0.38721 -0.80615,0 -1.19336,0.28565 -0.38086,0.27929 -0.56494,0.99658 l -1.11719,-0.15234 q 0.15235,-0.71729 0.50147,-1.15528 0.34912,-0.44433 1.00928,-0.6792 0.66015,-0.24121 1.52978,-0.24121 0.86328,0 1.40283,0.20313 0.53955,0.20312 0.79346,0.51416 0.25391,0.30469 0.35547,0.77441 0.0571,0.29199 0.0571,1.05371 v 1.52344 q 0,1.59326 0.0698,2.01856 0.0762,0.41894 0.29199,0.80615 h -1.19336 q -0.17773,-0.35547 -0.22851,-0.83155 z m -0.0952,-2.55175 q -0.62207,0.2539 -1.86621,0.43164 -0.70459,0.10156 -0.99658,0.22851 -0.29199,0.12696 -0.45068,0.37451 -0.15869,0.24122 -0.15869,0.53956 0,0.45703 0.34277,0.76171 0.34912,0.30469 1.01562,0.30469 0.66016,0 1.17432,-0.28564 0.51416,-0.292 0.75537,-0.79346 0.18408,-0.38721 0.18408,-1.14258 z m 2.46924,1.37109 1.12989,-0.17773 q 0.0952,0.6792 0.52685,1.04101 0.43799,0.36182 1.21875,0.36182 0.78711,0 1.16797,-0.31738 0.38086,-0.32374 0.38086,-0.75538 0,-0.3872 -0.33643,-0.60937 -0.23486,-0.15234 -1.16797,-0.38721 -1.25683,-0.31738 -1.7456,-0.5459 -0.48242,-0.23486 -0.73633,-0.64111 -0.24756,-0.4126 -0.24756,-0.90771 0,-0.45069 0.20313,-0.83155 0.20947,-0.3872 0.56494,-0.64111 0.2666,-0.19678 0.72363,-0.33008 0.46338,-0.13965 0.99024,-0.13965 0.79345,0 1.39013,0.22852 0.60303,0.22851 0.88867,0.62207 0.28565,0.38721 0.39356,1.04101 l -1.11719,0.15235 q -0.0762,-0.52051 -0.44433,-0.8125 -0.36182,-0.29199 -1.02832,-0.29199 -0.78711,0 -1.12354,0.26025 -0.33643,0.26025 -0.33643,0.60937 0,0.22217 0.13965,0.39991 0.13965,0.18408 0.43799,0.30468 0.17139,0.0635 1.00928,0.292 1.2124,0.32373 1.68847,0.5332 0.48243,0.20312 0.75538,0.59668 0.27295,0.39355 0.27295,0.97754 0,0.57129 -0.33643,1.0791 -0.33008,0.50147 -0.9585,0.78076 -0.62841,0.27295 -1.42187,0.27295 -1.31397,0 -2.00586,-0.5459 -0.68555,-0.5459 -0.87598,-1.61865 z m 6.5,0 1.12989,-0.17773 q 0.0952,0.6792 0.52685,1.04101 0.43799,0.36182 1.21875,0.36182 0.78711,0 1.16797,-0.31738 0.38086,-0.32374 0.38086,-0.75538 0,-0.3872 -0.33643,-0.60937 -0.23486,-0.15234 -1.16797,-0.38721 -1.25683,-0.31738 -1.7456,-0.5459 -0.48242,-0.23486 -0.73633,-0.64111 -0.24756,-0.4126 -0.24756,-0.90771 0,-0.45069 0.20313,-0.83155 0.20947,-0.3872 0.56494,-0.64111 0.2666,-0.19678 0.72363,-0.33008 0.46338,-0.13965 0.99024,-0.13965 0.79345,0 1.39013,0.22852 0.60303,0.22851 0.88867,0.62207 0.28565,0.38721 0.39356,1.04101 l -1.11719,0.15235 q -0.0762,-0.52051 -0.44433,-0.8125 -0.36182,-0.29199 -1.02832,-0.29199 -0.78711,0 -1.12354,0.26025 -0.33643,0.26025 -0.33643,0.60937 0,0.22217 0.13965,0.39991 0.13965,0.18408 0.43799,0.30468 0.17139,0.0635 1.00928,0.292 1.2124,0.32373 1.68847,0.5332 0.48243,0.20312 0.75538,0.59668 0.27295,0.39355 0.27295,0.97754 0,0.57129 -0.33643,1.0791 -0.33008,0.50147 -0.9585,0.78076 -0.62841,0.27295 -1.42187,0.27295 -1.31397,0 -2.00586,-0.5459 -0.68555,-0.5459 -0.87598,-1.61865 z m 6.96338,-5.97949 v -1.31397 h 1.14258 v 1.31397 z m 0,7.9917 v -6.74121 h 1.14258 v 6.74121 z m 2.67236,0.55859 1.11084,0.16504 q 0.0698,0.51416 0.38721,0.74902 0.42529,0.31739 1.16162,0.31739 0.79346,0 1.2251,-0.31739 0.43164,-0.31738 0.58398,-0.88867 0.0889,-0.34912 0.0825,-1.46631 -0.74902,0.88233 -1.86621,0.88233 -1.39013,0 -2.15185,-1.00293 -0.76172,-1.00293 -0.76172,-2.40576 0,-0.96485 0.34912,-1.77735 0.34912,-0.81885 1.00928,-1.26318 0.6665,-0.44434 1.56152,-0.44434 1.19336,0 1.96777,0.96485 v -0.8125 h 1.05372 v 5.82714 q 0,1.57422 -0.32374,2.22803 -0.31738,0.66016 -1.01562,1.04102 -0.69189,0.38086 -1.70752,0.38086 -1.20605,0 -1.94873,-0.5459 -0.74268,-0.53955 -0.71729,-1.63135 z m 0.94581,-4.0498 q 0,1.32666 0.52685,1.93603 0.52686,0.60938 1.32031,0.60938 0.78711,0 1.32032,-0.60303 0.5332,-0.60938 0.5332,-1.9043 0,-1.23779 -0.55225,-1.86621 -0.5459,-0.62842 -1.32031,-0.62842 -0.76172,0 -1.29492,0.62207 -0.5332,0.61573 -0.5332,1.83448 z m 6.49365,3.49121 v -6.74121 h 1.02832 v 0.95849 q 0.74267,-1.11084 2.14551,-1.11084 0.60937,0 1.11718,0.22217 0.51416,0.21582 0.76807,0.57129 0.25391,0.35547 0.35547,0.84424 0.0635,0.31738 0.0635,1.11084 v 4.14502 H 349.606 v -4.10059 q 0,-0.69824 -0.1333,-1.04101 -0.1333,-0.34913 -0.47608,-0.55225 -0.33642,-0.20947 -0.79346,-0.20947 -0.72998,0 -1.26318,0.46338 -0.52685,0.46337 -0.52685,1.7583 v 3.68164 z m 7.37597,0 v -9.30567 h 3.20557 q 1.08545,0 1.65674,0.1333 0.7998,0.18409 1.36475,0.66651 0.73632,0.62207 1.09814,1.59326 0.36816,0.96484 0.36816,2.20898 0,1.06006 -0.24755,1.87891 -0.24756,0.81885 -0.63477,1.3584 -0.38721,0.5332 -0.85059,0.84424 -0.45703,0.30468 -1.11084,0.46338 -0.64746,0.15869 -1.4917,0.15869 z m 1.23145,-1.09815 h 1.98682 q 0.92041,0 1.44091,-0.17138 0.52686,-0.17139 0.83789,-0.48243 0.43799,-0.43798 0.6792,-1.17431 0.24756,-0.74268 0.24756,-1.79639 0,-1.45996 -0.48242,-2.24072 -0.47607,-0.78711 -1.16162,-1.05371 -0.49512,-0.19043 -1.59326,-0.19043 h -1.95508 z m 12.40967,0.2666 q -0.63477,0.53956 -1.2251,0.76172 -0.58398,0.22217 -1.25684,0.22217 -1.11084,0 -1.70752,-0.53955 -0.59668,-0.5459 -0.59668,-1.39014 0,-0.49511 0.22217,-0.90136 0.22852,-0.4126 0.59033,-0.66016 0.36817,-0.24756 0.8252,-0.37451 0.33643,-0.0889 1.01563,-0.17139 1.38378,-0.16504 2.03759,-0.39355 0.006,-0.23487 0.006,-0.29834 0,-0.69824 -0.32373,-0.98389 -0.43799,-0.38721 -1.30127,-0.38721 -0.80615,0 -1.19336,0.28565 -0.38086,0.27929 -0.56494,0.99658 l -1.11719,-0.15234 q 0.15235,-0.71729 0.50147,-1.15528 0.34912,-0.44433 1.00927,-0.6792 0.66016,-0.24121 1.52979,-0.24121 0.86328,0 1.40283,0.20313 0.53955,0.20312 0.79346,0.51416 0.2539,0.30469 0.35547,0.77441 0.0571,0.29199 0.0571,1.05371 v 1.52344 q 0,1.59326 0.0698,2.01856 0.0762,0.41894 0.29199,0.80615 h -1.19336 q -0.17773,-0.35547 -0.22851,-0.83155 z m -0.0952,-2.55175 q -0.62207,0.2539 -1.86621,0.43164 -0.70459,0.10156 -0.99658,0.22851 -0.29199,0.12696 -0.45068,0.37451 -0.1587,0.24122 -0.1587,0.53956 0,0.45703 0.34278,0.76171 0.34912,0.30469 1.01562,0.30469 0.66016,0 1.17432,-0.28564 0.51416,-0.292 0.75537,-0.79346 0.18408,-0.38721 0.18408,-1.14258 z m 5.4209,2.36132 0.16504,1.00928 q -0.48242,0.10156 -0.86328,0.10156 -0.62207,0 -0.96484,-0.19677 -0.34278,-0.19678 -0.48243,-0.51416 -0.13965,-0.32373 -0.13965,-1.35205 v -3.87842 h -0.83789 v -0.88867 h 0.83789 v -1.66944 l 1.13624,-0.68554 v 2.35498 h 1.14892 v 0.88867 h -1.14892 v 3.94189 q 0,0.48877 0.0571,0.62842 0.0635,0.13965 0.19678,0.22217 0.13965,0.0825 0.39356,0.0825 0.19043,0 0.50146,-0.0444 z m 5.73193,-1.14892 1.18067,0.146 q -0.2793,1.03466 -1.03467,1.60595 -0.75537,0.57129 -1.92969,0.57129 -1.479,0 -2.34863,-0.90771 -0.86328,-0.91407 -0.86328,-2.55811 0,-1.70117 0.87598,-2.64062 0.87597,-0.93946 2.27246,-0.93946 1.35205,0 2.20898,0.92041 0.85693,0.92041 0.85693,2.58985 0,0.10156 -0.006,0.30468 h -5.02735 q 0.0635,1.11084 0.62842,1.70118 0.56494,0.59033 1.40918,0.59033 0.62842,0 1.07275,-0.33008 0.44434,-0.33008 0.70459,-1.05371 z m -3.75146,-1.84717 h 3.76416 q -0.0762,-0.85058 -0.43164,-1.27588 -0.5459,-0.66015 -1.41553,-0.66015 -0.78711,0 -1.32666,0.52685 -0.5332,0.52686 -0.59033,1.40918 z m 5.90967,2.00586 1.12988,-0.17773 q 0.0952,0.6792 0.52686,1.04101 0.43798,0.36182 1.21875,0.36182 0.78711,0 1.16796,-0.31738 0.38086,-0.32374 0.38086,-0.75538 0,-0.3872 -0.33642,-0.60937 -0.23486,-0.15234 -1.16797,-0.38721 -1.25684,-0.31738 -1.74561,-0.5459 -0.48242,-0.23486 -0.73632,-0.64111 -0.24756,-0.4126 -0.24756,-0.90771 0,-0.45069 0.20312,-0.83155 0.20948,-0.3872 0.56494,-0.64111 0.26661,-0.19678 0.72364,-0.33008 0.46338,-0.13965 0.99023,-0.13965 0.79346,0 1.39014,0.22852 0.60303,0.22851 0.88867,0.62207 0.28564,0.38721 0.39355,1.04101 l -1.11718,0.15235 q -0.0762,-0.52051 -0.44434,-0.8125 -0.36182,-0.29199 -1.02832,-0.29199 -0.78711,0 -1.12353,0.26025 -0.33643,0.26025 -0.33643,0.60937 0,0.22217 0.13965,0.39991 0.13965,0.18408 0.43799,0.30468 0.17138,0.0635 1.00927,0.292 1.21241,0.32373 1.68848,0.5332 0.48242,0.20312 0.75537,0.59668 0.27295,0.39355 0.27295,0.97754 0,0.57129 -0.33643,1.0791 -0.33007,0.50147 -0.95849,0.78076 -0.62842,0.27295 -1.42188,0.27295 -1.31396,0 -2.00586,-0.5459 -0.68554,-0.5459 -0.87597,-1.61865 z m 9.4707,2.01221 v -8.20752 h -3.06592 v -1.09815 h 7.37598 v 1.09815 h -3.07861 v 8.20752 z m 3.56104,-3.37061 q 0,-1.87256 1.04101,-2.77392 0.86963,-0.74903 2.12012,-0.74903 1.39014,0 2.27246,0.91407 0.88232,0.90771 0.88232,2.51367 0,1.30127 -0.39355,2.05029 -0.38721,0.74268 -1.13623,1.15527 -0.74268,0.4126 -1.625,0.4126 -1.41553,0 -2.2915,-0.90771 -0.86963,-0.90772 -0.86963,-2.61524 z m 1.17431,0 q 0,1.29492 0.56494,1.94238 0.56495,0.64112 1.42188,0.64112 0.85058,0 1.41553,-0.64746 0.56494,-0.64746 0.56494,-1.97412 0,-1.25049 -0.57129,-1.89161 -0.56494,-0.64746 -1.40918,-0.64746 -0.85693,0 -1.42188,0.64112 -0.56494,0.64111 -0.56494,1.93603 z m 13.2666,0.10791 1.23145,0.31104 q -0.38721,1.51709 -1.39648,2.31689 -1.00293,0.79346 -2.45655,0.79346 -1.50439,0 -2.45019,-0.60938 -0.93946,-0.61572 -1.43457,-1.77734 -0.48877,-1.16162 -0.48877,-2.49463 0,-1.45361 0.55224,-2.53271 0.5586,-1.08545 1.58057,-1.64405 1.02832,-0.56494 2.25977,-0.56494 1.39648,0 2.34863,0.71094 0.95215,0.71094 1.32666,1.99951 l -1.2124,0.28565 q -0.32373,-1.01563 -0.93946,-1.47901 -0.61572,-0.46338 -1.54883,-0.46338 -1.07275,0 -1.79638,0.51416 -0.71729,0.51416 -1.00928,1.38379 -0.29199,0.86328 -0.29199,1.78369 0,1.18702 0.34277,2.07569 0.34912,0.88232 1.0791,1.32031 0.72998,0.43799 1.58057,0.43799 1.03467,0 1.75195,-0.59668 0.71729,-0.59668 0.97119,-1.771 z m 7.00147,2.43115 q -0.63477,0.53956 -1.2251,0.76172 -0.58398,0.22217 -1.25683,0.22217 -1.11084,0 -1.70752,-0.53955 -0.59668,-0.5459 -0.59668,-1.39014 0,-0.49511 0.22216,-0.90136 0.22852,-0.4126 0.59034,-0.66016 0.36816,-0.24756 0.82519,-0.37451 0.33643,-0.0889 1.01563,-0.17139 1.38379,-0.16504 2.03759,-0.39355 0.006,-0.23487 0.006,-0.29834 0,-0.69824 -0.32373,-0.98389 -0.43799,-0.38721 -1.30127,-0.38721 -0.80615,0 -1.19336,0.28565 -0.38086,0.27929 -0.56494,0.99658 l -1.11719,-0.15234 q 0.15235,-0.71729 0.50147,-1.15528 0.34912,-0.44433 1.00928,-0.6792 0.66015,-0.24121 1.52978,-0.24121 0.86328,0 1.40283,0.20313 0.53955,0.20312 0.79346,0.51416 0.25391,0.30469 0.35547,0.77441 0.0571,0.29199 0.0571,1.05371 v 1.52344 q 0,1.59326 0.0698,2.01856 0.0762,0.41894 0.29199,0.80615 h -1.19336 q -0.17773,-0.35547 -0.22851,-0.83155 z m -0.0952,-2.55175 q -0.62207,0.2539 -1.86621,0.43164 -0.70459,0.10156 -0.99658,0.22851 -0.29199,0.12696 -0.45068,0.37451 -0.15869,0.24122 -0.15869,0.53956 0,0.45703 0.34277,0.76171 0.34912,0.30469 1.01562,0.30469 0.66016,0 1.17432,-0.28564 0.51416,-0.292 0.75537,-0.79346 0.18408,-0.38721 0.18408,-1.14258 z m 2.90088,3.3833 v -9.30567 h 1.14258 v 9.30567 z m 7.52832,-2.1709 1.18067,0.146 q -0.2793,1.03466 -1.03467,1.60595 -0.75537,0.57129 -1.92969,0.57129 -1.479,0 -2.34863,-0.90771 -0.86328,-0.91407 -0.86328,-2.55811 0,-1.70117 0.87597,-2.64062 0.87598,-0.93946 2.27247,-0.93946 1.35205,0 2.20898,0.92041 0.85693,0.92041 0.85693,2.58985 0,0.10156 -0.006,0.30468 h -5.02735 q 0.0635,1.11084 0.62842,1.70118 0.56494,0.59033 1.40918,0.59033 0.62842,0 1.07275,-0.33008 0.44434,-0.33008 0.70459,-1.05371 z m -3.75146,-1.84717 h 3.76416 q -0.0762,-0.85058 -0.43164,-1.27588 -0.5459,-0.66015 -1.41553,-0.66015 -0.78711,0 -1.32666,0.52685 -0.5332,0.52686 -0.59033,1.40918 z m 6.3667,4.01807 v -6.74121 h 1.02832 v 0.95849 q 0.74267,-1.11084 2.14551,-1.11084 0.60937,0 1.11718,0.22217 0.51416,0.21582 0.76807,0.57129 0.25391,0.35547 0.35547,0.84424 0.0635,0.31738 0.0635,1.11084 v 4.14502 h -1.14258 v -4.10059 q 0,-0.69824 -0.1333,-1.04101 -0.1333,-0.34913 -0.47608,-0.55225 -0.33642,-0.20947 -0.79346,-0.20947 -0.72998,0 -1.26318,0.46338 -0.52685,0.46337 -0.52685,1.7583 v 3.68164 z m 11.60351,0 v -0.85059 q -0.64111,1.00293 -1.88525,1.00293 -0.80615,0 -1.48535,-0.44433 -0.67285,-0.44434 -1.04737,-1.2378 -0.36816,-0.7998 -0.36816,-1.83447 0,-1.00928 0.33643,-1.82813 0.33642,-0.82519 1.00927,-1.26318 0.67286,-0.43799 1.5044,-0.43799 0.60937,0 1.08545,0.26026 0.47607,0.2539 0.77441,0.6665 v -3.33887 h 1.13623 v 9.30567 z m -3.61181,-3.36426 q 0,1.29492 0.5459,1.93603 0.54589,0.64112 1.28857,0.64112 0.74902,0 1.26953,-0.60938 0.52686,-0.61572 0.52686,-1.87256 0,-1.38378 -0.53321,-2.03125 -0.5332,-0.64746 -1.31396,-0.64746 -0.76172,0 -1.27588,0.62207 -0.50781,0.62207 -0.50781,1.96143 z m 10.86718,2.53271 q -0.63476,0.53956 -1.22509,0.76172 -0.58399,0.22217 -1.25684,0.22217 -1.11084,0 -1.70752,-0.53955 -0.59668,-0.5459 -0.59668,-1.39014 0,-0.49511 0.22217,-0.90136 0.22852,-0.4126 0.59033,-0.66016 0.36817,-0.24756 0.8252,-0.37451 0.33642,-0.0889 1.01562,-0.17139 1.38379,-0.16504 2.0376,-0.39355 0.006,-0.23487 0.006,-0.29834 0,-0.69824 -0.32373,-0.98389 -0.43799,-0.38721 -1.30127,-0.38721 -0.80616,0 -1.19336,0.28565 -0.38086,0.27929 -0.56494,0.99658 l -1.11719,-0.15234 q 0.15234,-0.71729 0.50146,-1.15528 0.34912,-0.44433 1.00928,-0.6792 0.66016,-0.24121 1.52979,-0.24121 0.86328,0 1.40283,0.20313 0.53955,0.20312 0.79346,0.51416 0.2539,0.30469 0.35546,0.77441 0.0571,0.29199 0.0571,1.05371 v 1.52344 q 0,1.59326 0.0698,2.01856 0.0762,0.41894 0.29199,0.80615 h -1.19336 q -0.17773,-0.35547 -0.22852,-0.83155 z m -0.0952,-2.55175 q -0.62207,0.2539 -1.86621,0.43164 -0.70459,0.10156 -0.99658,0.22851 -0.292,0.12696 -0.45069,0.37451 -0.15869,0.24122 -0.15869,0.53956 0,0.45703 0.34278,0.76171 0.34912,0.30469 1.01562,0.30469 0.66016,0 1.17432,-0.28564 0.51416,-0.292 0.75537,-0.79346 0.18408,-0.38721 0.18408,-1.14258 z m 2.91357,3.3833 v -6.74121 h 1.02832 v 1.02197 q 0.39356,-0.71729 0.72364,-0.9458 0.33642,-0.22852 0.73633,-0.22852 0.57763,0 1.17431,0.36817 l -0.39355,1.06006 q -0.41895,-0.24756 -0.83789,-0.24756 -0.37452,0 -0.67286,0.22851 -0.29834,0.22217 -0.42529,0.62207 -0.19043,0.60938 -0.19043,1.33301 v 3.5293 z"
     id="text45"
     style="font-size:13px;font-family:Arial;dominant-baseline:central;text-anchor:middle"
     aria-label="3 : assignDatesToCalendar" />
  <path
     id="rect47"
     style="fill:#ffffff"
     d="m 321,206 h 14 v 44 h -14 z" />
  <path
     fill="none"
     stroke="#000000"
     paint-order="fill stroke markers"
     d="m 321,206 h 14 v 44 h -14 z"
     stroke-miterlimit="10"
     stroke-dasharray="none"
     id="path48" />
  <path
     fill="none"
     stroke="#000000"
     paint-order="fill stroke markers"
     d="M 321,242 H 115"
     stroke-miterlimit="10"
     stroke-dasharray="none"
     id="path49" />
  <path
     fill="#000000"
     stroke="none"
     paint-order="stroke fill markers"
     d="M 125.16267,237.79048 115,242 l 10.16267,4.20952"
     id="path50" />
  <path
     fill="none"
     stroke="#000000"
     paint-order="fill stroke markers"
     d="M 125.16267,237.79048 115,242 l 10.16267,4.20952 v -8.41904"
     stroke-miterlimit="10"
     stroke-dasharray="none"
     id="path51" />
  <path
     id="rect52"
     style="fill:#ffffff"
     d="m 162,246 h 111.28711 v 13 H 162 Z" />
  <path
     fill="none"
     stroke="none"
     id="path53"
     d="" />
  <path
     d="m 166.20215,256.08481 v -2.22803 h -4.03711 v -1.04736 l 4.24658,-6.03028 h 0.93311 v 6.03028 h 1.25683 v 1.04736 h -1.25683 v 2.22803 z m 0,-3.27539 v -4.1958 l -2.91358,4.1958 z m 7.81396,-2.16455 v -1.30127 h 1.30127 v 1.30127 z m 0,5.43994 v -1.30127 h 1.30127 v 1.30127 z m 11.27979,0 v -0.85059 q -0.64111,1.00293 -1.88526,1.00293 -0.80615,0 -1.48535,-0.44433 -0.67285,-0.44434 -1.04736,-1.2378 -0.36816,-0.7998 -0.36816,-1.83447 0,-1.00928 0.33642,-1.82813 0.33643,-0.82519 1.00928,-1.26318 0.67285,-0.43799 1.50439,-0.43799 0.60938,0 1.08545,0.26026 0.47608,0.2539 0.77442,0.6665 v -3.33887 h 1.13623 v 9.30567 z m -3.61182,-3.36426 q 0,1.29492 0.5459,1.93603 0.5459,0.64112 1.28857,0.64112 0.74903,0 1.26954,-0.60938 0.52685,-0.61572 0.52685,-1.87256 0,-1.38378 -0.5332,-2.03125 -0.5332,-0.64746 -1.31397,-0.64746 -0.76172,0 -1.27588,0.62207 -0.50781,0.62207 -0.50781,1.96143 z m 6.47461,-4.62744 v -1.31397 h 1.14258 v 1.31397 z m 0,7.9917 v -6.74121 h 1.14258 v 6.74121 z m 2.42481,-2.01221 1.12988,-0.17773 q 0.0952,0.6792 0.52685,1.04101 0.43799,0.36182 1.21875,0.36182 0.78711,0 1.16797,-0.31738 0.38086,-0.32374 0.38086,-0.75538 0,-0.3872 -0.33642,-0.60937 -0.23487,-0.15234 -1.16797,-0.38721 -1.25684,-0.31738 -1.74561,-0.5459 -0.48242,-0.23486 -0.73633,-0.64111 -0.24755,-0.4126 -0.24755,-0.90771 0,-0.45069 0.20312,-0.83155 0.20947,-0.3872 0.56494,-0.64111 0.2666,-0.19678 0.72363,-0.33008 0.46338,-0.13965 0.99024,-0.13965 0.79346,0 1.39014,0.22852 0.60302,0.22851 0.88867,0.62207 0.28564,0.38721 0.39355,1.04101 l -1.11718,0.15235 q -0.0762,-0.52051 -0.44434,-0.8125 -0.36182,-0.29199 -1.02832,-0.29199 -0.78711,0 -1.12354,0.26025 -0.33642,0.26025 -0.33642,0.60937 0,0.22217 0.13965,0.39991 0.13964,0.18408 0.43798,0.30468 0.17139,0.0635 1.00928,0.292 1.2124,0.32373 1.68848,0.5332 0.48242,0.20312 0.75537,0.59668 0.27295,0.39355 0.27295,0.97754 0,0.57129 -0.33643,1.0791 -0.33008,0.50147 -0.95849,0.78076 -0.62842,0.27295 -1.42188,0.27295 -1.31396,0 -2.00586,-0.5459 -0.68554,-0.5459 -0.87597,-1.61865 z m 6.95703,4.5957 v -9.3247 h 1.04101 v 0.87597 q 0.36817,-0.51416 0.83155,-0.76806 0.46337,-0.26026 1.12353,-0.26026 0.86328,0 1.52344,0.44434 0.66015,0.44433 0.99658,1.25683 0.33643,0.80616 0.33643,1.771 0,1.03467 -0.37452,1.86621 -0.36816,0.8252 -1.0791,1.26953 -0.70459,0.43799 -1.48535,0.43799 -0.57129,0 -1.02832,-0.24121 -0.45068,-0.24121 -0.74267,-0.60937 v 3.28173 z m 1.03467,-5.91601 q 0,1.30127 0.52685,1.92334 0.52686,0.62207 1.27588,0.62207 0.76172,0 1.30127,-0.64112 0.5459,-0.64746 0.5459,-1.99951 0,-1.28857 -0.53321,-1.92968 -0.52685,-0.64112 -1.26318,-0.64112 -0.72998,0 -1.29492,0.68555 -0.55859,0.6792 -0.55859,1.98047 z m 6.16992,3.33252 v -9.30567 h 1.14258 v 9.30567 z m 7.3125,-0.83155 q -0.63477,0.53956 -1.2251,0.76172 -0.58398,0.22217 -1.25684,0.22217 -1.11084,0 -1.70752,-0.53955 -0.59668,-0.5459 -0.59668,-1.39014 0,-0.49511 0.22217,-0.90136 0.22852,-0.4126 0.59033,-0.66016 0.36817,-0.24756 0.8252,-0.37451 0.33643,-0.0889 1.01562,-0.17139 1.38379,-0.16504 2.0376,-0.39355 0.006,-0.23487 0.006,-0.29834 0,-0.69824 -0.32373,-0.98389 -0.43799,-0.38721 -1.30127,-0.38721 -0.80615,0 -1.19336,0.28565 -0.38086,0.27929 -0.56494,0.99658 l -1.11719,-0.15234 q 0.15235,-0.71729 0.50147,-1.15528 0.34912,-0.44433 1.00927,-0.6792 0.66016,-0.24121 1.52979,-0.24121 0.86328,0 1.40283,0.20313 0.53955,0.20312 0.79346,0.51416 0.2539,0.30469 0.35547,0.77441 0.0571,0.29199 0.0571,1.05371 v 1.52344 q 0,1.59326 0.0698,2.01856 0.0762,0.41894 0.29199,0.80615 h -1.19336 q -0.17773,-0.35547 -0.22851,-0.83155 z m -0.0952,-2.55175 q -0.62207,0.2539 -1.86621,0.43164 -0.70459,0.10156 -0.99658,0.22851 -0.29199,0.12696 -0.45068,0.37451 -0.1587,0.24122 -0.1587,0.53956 0,0.45703 0.34278,0.76171 0.34912,0.30469 1.01562,0.30469 0.66016,0 1.17432,-0.28564 0.51416,-0.292 0.75537,-0.79346 0.18408,-0.38721 0.18408,-1.14258 z m 2.87549,5.97949 -0.12695,-1.07276 q 0.37451,0.10157 0.65381,0.10157 0.38086,0 0.60937,-0.12696 0.22852,-0.12695 0.37451,-0.35546 0.10791,-0.17139 0.34912,-0.85059 0.0317,-0.0952 0.10157,-0.2793 l -2.55811,-6.7539 h 1.23145 l 1.40283,3.90381 q 0.27295,0.74267 0.48877,1.56152 0.19678,-0.78711 0.46972,-1.53613 l 1.44092,-3.9292 h 1.14258 l -2.56445,6.85547 q -0.4126,1.11084 -0.64112,1.52978 -0.30468,0.56494 -0.69824,0.8252 -0.39355,0.2666 -0.93945,0.2666 -0.33008,0 -0.73633,-0.13965 z m 13.33643,-5.85889 1.23144,0.31104 q -0.38721,1.51709 -1.39648,2.31689 -1.00293,0.79346 -2.45655,0.79346 -1.50439,0 -2.45019,-0.60938 -0.93945,-0.61572 -1.43457,-1.77734 -0.48877,-1.16162 -0.48877,-2.49463 0,-1.45361 0.55225,-2.53271 0.55859,-1.08545 1.58056,-1.64405 1.02832,-0.56494 2.25977,-0.56494 1.39648,0 2.34863,0.71094 0.95215,0.71094 1.32666,1.99951 l -1.2124,0.28565 q -0.32373,-1.01563 -0.93946,-1.47901 -0.61572,-0.46338 -1.54882,-0.46338 -1.07276,0 -1.79639,0.51416 -0.71729,0.51416 -1.00928,1.38379 -0.29199,0.86328 -0.29199,1.78369 0,1.18702 0.34277,2.07569 0.34912,0.88232 1.07911,1.32031 0.72998,0.43799 1.58056,0.43799 1.03467,0 1.75195,-0.59668 0.71729,-0.59668 0.9712,-1.771 z m 7.00146,2.43115 q -0.63476,0.53956 -1.2251,0.76172 -0.58398,0.22217 -1.25683,0.22217 -1.11084,0 -1.70752,-0.53955 -0.59668,-0.5459 -0.59668,-1.39014 0,-0.49511 0.22217,-0.90136 0.22851,-0.4126 0.59033,-0.66016 0.36816,-0.24756 0.82519,-0.37451 0.33643,-0.0889 1.01563,-0.17139 1.38379,-0.16504 2.0376,-0.39355 0.006,-0.23487 0.006,-0.29834 0,-0.69824 -0.32373,-0.98389 -0.43798,-0.38721 -1.30127,-0.38721 -0.80615,0 -1.19336,0.28565 -0.38085,0.27929 -0.56494,0.99658 l -1.11718,-0.15234 q 0.15234,-0.71729 0.50146,-1.15528 0.34912,-0.44433 1.00928,-0.6792 0.66015,-0.24121 1.52978,-0.24121 0.86328,0 1.40284,0.20313 0.53955,0.20312 0.79345,0.51416 0.25391,0.30469 0.35547,0.77441 0.0571,0.29199 0.0571,1.05371 v 1.52344 q 0,1.59326 0.0698,2.01856 0.0762,0.41894 0.292,0.80615 h -1.19336 q -0.17774,-0.35547 -0.22852,-0.83155 z m -0.0952,-2.55175 q -0.62207,0.2539 -1.86621,0.43164 -0.70459,0.10156 -0.99659,0.22851 -0.29199,0.12696 -0.45068,0.37451 -0.15869,0.24122 -0.15869,0.53956 0,0.45703 0.34277,0.76171 0.34912,0.30469 1.01563,0.30469 0.66015,0 1.17431,-0.28564 0.51416,-0.292 0.75537,-0.79346 0.18409,-0.38721 0.18409,-1.14258 z m 2.90088,3.3833 v -9.30567 h 1.14257 v 9.30567 z m 7.52832,-2.1709 1.18066,0.146 q -0.2793,1.03466 -1.03467,1.60595 -0.75537,0.57129 -1.92969,0.57129 -1.479,0 -2.34863,-0.90771 -0.86328,-0.91407 -0.86328,-2.55811 0,-1.70117 0.87598,-2.64062 0.87597,-0.93946 2.27246,-0.93946 1.35205,0 2.20898,0.92041 0.85694,0.92041 0.85694,2.58985 0,0.10156 -0.006,0.30468 h -5.02735 q 0.0635,1.11084 0.62842,1.70118 0.56494,0.59033 1.40918,0.59033 0.62842,0 1.07276,-0.33008 0.44433,-0.33008 0.70459,-1.05371 z m -3.75147,-1.84717 h 3.76416 q -0.0762,-0.85058 -0.43164,-1.27588 -0.5459,-0.66015 -1.41553,-0.66015 -0.78711,0 -1.32666,0.52685 -0.5332,0.52686 -0.59033,1.40918 z m 6.3667,4.01807 v -6.74121 h 1.02832 v 0.95849 q 0.74268,-1.11084 2.14551,-1.11084 0.60937,0 1.11719,0.22217 0.51416,0.21582 0.76806,0.57129 0.25391,0.35547 0.35547,0.84424 0.0635,0.31738 0.0635,1.11084 v 4.14502 h -1.14258 v -4.10059 q 0,-0.69824 -0.1333,-1.04101 -0.1333,-0.34913 -0.47608,-0.55225 -0.33642,-0.20947 -0.79345,-0.20947 -0.72998,0 -1.26319,0.46338 -0.52685,0.46337 -0.52685,1.7583 v 3.68164 z m 11.60352,0 v -0.85059 q -0.64112,1.00293 -1.88526,1.00293 -0.80615,0 -1.48535,-0.44433 -0.67285,-0.44434 -1.04736,-1.2378 -0.36817,-0.7998 -0.36817,-1.83447 0,-1.00928 0.33643,-1.82813 0.33642,-0.82519 1.00928,-1.26318 0.67285,-0.43799 1.50439,-0.43799 0.60938,0 1.08545,0.26026 0.47607,0.2539 0.77441,0.6665 v -3.33887 h 1.13623 v 9.30567 z m -3.61182,-3.36426 q 0,1.29492 0.5459,1.93603 0.5459,0.64112 1.28857,0.64112 0.74903,0 1.26953,-0.60938 0.52686,-0.61572 0.52686,-1.87256 0,-1.38378 -0.5332,-2.03125 -0.53321,-0.64746 -1.31397,-0.64746 -0.76172,0 -1.27588,0.62207 -0.50781,0.62207 -0.50781,1.96143 z m 10.86719,2.53271 q -0.63477,0.53956 -1.2251,0.76172 -0.58399,0.22217 -1.25684,0.22217 -1.11084,0 -1.70752,-0.53955 -0.59668,-0.5459 -0.59668,-1.39014 0,-0.49511 0.22217,-0.90136 0.22852,-0.4126 0.59033,-0.66016 0.36817,-0.24756 0.8252,-0.37451 0.33642,-0.0889 1.01562,-0.17139 1.38379,-0.16504 2.0376,-0.39355 0.006,-0.23487 0.006,-0.29834 0,-0.69824 -0.32373,-0.98389 -0.43799,-0.38721 -1.30127,-0.38721 -0.80615,0 -1.19336,0.28565 -0.38086,0.27929 -0.56494,0.99658 l -1.11719,-0.15234 q 0.15234,-0.71729 0.50147,-1.15528 0.34912,-0.44433 1.00927,-0.6792 0.66016,-0.24121 1.52979,-0.24121 0.86328,0 1.40283,0.20313 0.53955,0.20312 0.79346,0.51416 0.2539,0.30469 0.35547,0.77441 0.0571,0.29199 0.0571,1.05371 v 1.52344 q 0,1.59326 0.0698,2.01856 0.0762,0.41894 0.29199,0.80615 h -1.19336 q -0.17773,-0.35547 -0.22851,-0.83155 z m -0.0952,-2.55175 q -0.62207,0.2539 -1.86621,0.43164 -0.70459,0.10156 -0.99658,0.22851 -0.29199,0.12696 -0.45068,0.37451 -0.1587,0.24122 -0.1587,0.53956 0,0.45703 0.34278,0.76171 0.34912,0.30469 1.01562,0.30469 0.66016,0 1.17432,-0.28564 0.51416,-0.292 0.75537,-0.79346 0.18408,-0.38721 0.18408,-1.14258 z m 2.91358,3.3833 v -6.74121 h 1.02832 v 1.02197 q 0.39355,-0.71729 0.72363,-0.9458 0.33642,-0.22852 0.73633,-0.22852 0.57763,0 1.17431,0.36817 l -0.39355,1.06006 q -0.41895,-0.24756 -0.83789,-0.24756 -0.37451,0 -0.67285,0.22851 -0.29834,0.22217 -0.4253,0.62207 -0.19043,0.60938 -0.19043,1.33301 v 3.5293 z"
     id="text53"
     style="font-size:13px;font-family:Arial;dominant-baseline:central;text-anchor:middle"
     aria-label="4 : displayCalendar" />
  <path
     id="rect55"
     style="fill:#ffffff"
     d="m 101,242 h 14 v 28 h -14 z" />
  <path
     fill="none"
     stroke="#000000"
     paint-order="fill stroke markers"
     d="m 101,242 h 14 v 28 h -14 z"
     stroke-miterlimit="10"
     stroke-dasharray="none"
     id="path56" />
</svg>
