<?xml version="1.0" encoding="UTF-8" standalone="no"?>
<svg
   version="1.1"
   width="712"
   height="612"
   id="svg58"
   xmlns="http://www.w3.org/2000/svg"
   xmlns:svg="http://www.w3.org/2000/svg">
  <defs
     id="defs1" />
  <g
     id="g58">
    <g
       id="g1">
      <path
         fill="none"
         stroke="#000000"
         paint-order="fill stroke markers"
         d=" M 10 10 L 702 10 L 702 602 L 10 602 L 10 10"
         stroke-miterlimit="10"
         stroke-dasharray=""
         id="path1" />
    </g>
    <g
       id="g2">
      <path
         fill="#ffffff"
         stroke="none"
         paint-order="stroke fill markers"
         d=" M 10 10 L 10 33 L 132.462890625 33 L 143.962890625 21.5 L 143.962890625 10 L 10 10"
         id="path2" />
    </g>
    <g
       id="g3">
      <path
         fill="none"
         stroke="#000000"
         paint-order="fill stroke markers"
         d=" M 10 10 L 10 33 L 132.462890625 33 L 143.962890625 21.5 L 143.962890625 10 L 10 10 L 10 10"
         stroke-miterlimit="10"
         stroke-dasharray=""
         id="path3" />
    </g>
    <g
       id="g5">
      <g
         id="g4">
        <path
           fill="none"
           stroke="none"
           id="path4" />
        <text
           fill="#000000"
           stroke="none"
           font-family="Arial"
           font-size="13px"
           font-style="normal"
           font-weight="normal"
           text-decoration="undefined"
           x="79.096435546875"
           y="19.5"
           text-anchor="middle"
           dominant-baseline="central"
           transform="matrix(1 0 0 1 2 2)"
           id="text4">View Availability</text>
      </g>
    </g>
    <g
       id="g7">
      <g
         id="g6">
        <path
           fill="none"
           stroke="none"
           id="path5" />
        <text
           fill="#000000"
           stroke="none"
           font-family="Arial"
           font-size="13px"
           font-style="normal"
           font-weight="bold"
           text-decoration="undefined"
           x="19.864990234375"
           y="19.5"
           text-anchor="middle"
           dominant-baseline="central"
           transform="matrix(1 0 0 1 2 2)"
           id="text5">sd</text>
      </g>
    </g>
    <g
       id="g8">
      <rect
         fill="#C0C0C0"
         stroke="none"
         x="39"
         y="47"
         width="147.13720703125"
         height="40"
         transform="matrix(1 0 0 1 2 2)"
         fill-opacity="0.2"
         id="rect7" />
    </g>
    <g
       id="g9">
      <rect
         fill="#ffffff"
         stroke="none"
         x="32"
         y="40"
         width="147.13720703125"
         height="40"
         transform="matrix(1 0 0 1 2 2)"
         id="rect8" />
    </g>
    <g
       id="g10">
      <path
         fill="none"
         stroke="#000000"
         paint-order="fill stroke markers"
         d=" M 34 42 L 181.13720703125 42 L 181.13720703125 82 L 34 82 L 34 42 Z Z"
         stroke-miterlimit="10"
         stroke-dasharray=""
         id="path9" />
    </g>
    <g
       id="g12">
      <g
         id="g11">
        <path
           fill="none"
           stroke="none"
           id="path10" />
        <text
           fill="#000000"
           stroke="none"
           font-family="Arial"
           font-size="13px"
           font-style="normal"
           font-weight="bold"
           text-decoration="undefined"
           x="106.068603515625"
           y="53.5"
           text-anchor="middle"
           dominant-baseline="central"
           transform="matrix(1 0 0 1 2 2)"
           id="text10">customer: Customer</text>
      </g>
    </g>
    <g
       id="g13">
      <path
         fill="none"
         stroke="#000000"
         paint-order="fill stroke markers"
         d=" M 108.5 83 L 108.5 284"
         stroke-miterlimit="10"
         stroke-dasharray="3"
         id="path12" />
    </g>
    <g
       id="g14">
      <rect
         fill="#C0C0C0"
         stroke="none"
         x="279"
         y="47"
         width="110.27001953125"
         height="40"
         transform="matrix(1 0 0 1 2 2)"
         fill-opacity="0.2"
         id="rect13" />
    </g>
    <g
       id="g15">
      <rect
         fill="#ffffff"
         stroke="none"
         x="272"
         y="40"
         width="110.27001953125"
         height="40"
         transform="matrix(1 0 0 1 2 2)"
         id="rect14" />
    </g>
    <g
       id="g16">
      <path
         fill="none"
         stroke="#000000"
         paint-order="fill stroke markers"
         d=" M 274 42 L 384.27001953125 42 L 384.27001953125 82 L 274 82 L 274 42 Z Z"
         stroke-miterlimit="10"
         stroke-dasharray=""
         id="path15" />
    </g>
    <g
       id="g18">
      <g
         id="g17">
        <path
           fill="none"
           stroke="none"
           id="path16" />
        <text
           fill="#000000"
           stroke="none"
           font-family="Arial"
           font-size="13px"
           font-style="normal"
           font-weight="bold"
           text-decoration="undefined"
           x="327.635009765625"
           y="53.5"
           text-anchor="middle"
           dominant-baseline="central"
           transform="matrix(1 0 0 1 2 2)"
           id="text16">hotelDB: Hotel</text>
      </g>
    </g>
    <g
       id="g19">
      <path
         fill="none"
         stroke="#000000"
         paint-order="fill stroke markers"
         d=" M 329.5 83 L 329.5 284"
         stroke-miterlimit="10"
         stroke-dasharray="3"
         id="path18" />
    </g>
    <g
       id="g20">
      <rect
         fill="#C0C0C0"
         stroke="none"
         x="447"
         y="47"
         width="149.32080078125"
         height="40"
         transform="matrix(1 0 0 1 2 2)"
         fill-opacity="0.2"
         id="rect19" />
    </g>
    <g
       id="g21">
      <rect
         fill="#ffffff"
         stroke="none"
         x="440"
         y="40"
         width="149.32080078125"
         height="40"
         transform="matrix(1 0 0 1 2 2)"
         id="rect20" />
    </g>
    <g
       id="g22">
      <path
         fill="none"
         stroke="#000000"
         paint-order="fill stroke markers"
         d=" M 442 42 L 591.32080078125 42 L 591.32080078125 82 L 442 82 L 442 42 Z Z"
         stroke-miterlimit="10"
         stroke-dasharray=""
         id="path21" />
    </g>
    <g
       id="g24">
      <g
         id="g23">
        <path
           fill="none"
           stroke="none"
           id="path22" />
        <text
           fill="#000000"
           stroke="none"
           font-family="Arial"
           font-size="13px"
           font-style="normal"
           font-weight="bold"
           text-decoration="undefined"
           x="515.160400390625"
           y="53.5"
           text-anchor="middle"
           dominant-baseline="central"
           transform="matrix(1 0 0 1 2 2)"
           id="text22">schedules: Schedule</text>
      </g>
    </g>
    <g
       id="g25">
      <path
         fill="none"
         stroke="#000000"
         paint-order="fill stroke markers"
         d=" M 517.5 83 L 517.5 196"
         stroke-miterlimit="10"
         stroke-dasharray="3"
         id="path24" />
    </g>
    <g
       id="g26">
      <path
         fill="none"
         stroke="#000000"
         paint-order="fill stroke markers"
         d=" M 109 114 L 322 114"
         stroke-miterlimit="10"
         stroke-dasharray=""
         id="path25" />
    </g>
    <g
       id="g27">
      <path
         fill="#000000"
         stroke="none"
         paint-order="stroke fill markers"
         d=" M 311.83732514237585 118.20951775601598 L 322 114 L 311.83732514237585 109.79048224398402"
         id="path26" />
    </g>
    <g
       id="g28">
      <path
         fill="none"
         stroke="#000000"
         paint-order="fill stroke markers"
         d=" M 311.83732514237585 118.20951775601598 L 322 114 L 311.83732514237585 109.79048224398402 L 311.83732514237585 118.20951775601598"
         stroke-miterlimit="10"
         stroke-dasharray=""
         id="path27" />
    </g>
    <g
       id="g29">
      <rect
         fill="#ffffff"
         stroke="none"
         x="136"
         y="96"
         width="155.0859375"
         height="13"
         transform="matrix(1 0 0 1 2 2)"
         id="rect28" />
    </g>
    <g
       id="g31">
      <g
         id="g30">
        <path
           fill="none"
           stroke="none"
           id="path29" />
        <text
           fill="#000000"
           stroke="none"
           font-family="Arial"
           font-size="13px"
           font-style="normal"
           font-weight="normal"
           text-decoration="undefined"
           x="213.54296875"
           y="102.5"
           text-anchor="middle"
           dominant-baseline="central"
           transform="matrix(1 0 0 1 2 2)"
           id="text29">1 : viewAvailability(service)</text>
      </g>
    </g>
    <g
       id="g32">
      <rect
         fill="#ffffff"
         stroke="none"
         x="320"
         y="112"
         width="14"
         height="79"
         transform="matrix(1 0 0 1 2 2)"
         id="rect31" />
    </g>
    <g
       id="g33">
      <path
         fill="none"
         stroke="#000000"
         paint-order="fill stroke markers"
         d=" M 322 114 L 336 114 L 336 193 L 322 193 L 322 114 Z Z"
         stroke-miterlimit="10"
         stroke-dasharray=""
         id="path32" />
    </g>
    <g
       id="g34">
      <path
         fill="none"
         stroke="#000000"
         paint-order="fill stroke markers"
         d=" M 336 154 L 510 154"
         stroke-miterlimit="10"
         stroke-dasharray=""
         id="path33" />
    </g>
    <g
       id="g35">
      <path
         fill="#000000"
         stroke="none"
         paint-order="stroke fill markers"
         d=" M 499.83732514237585 158.209517756016 L 510 154 L 499.83732514237585 149.790482243984"
         id="path34" />
    </g>
    <g
       id="g36">
      <path
         fill="none"
         stroke="#000000"
         paint-order="fill stroke markers"
         d=" M 499.83732514237585 158.209517756016 L 510 154 L 499.83732514237585 149.790482243984 L 499.83732514237585 158.209517756016"
         stroke-miterlimit="10"
         stroke-dasharray=""
         id="path35" />
    </g>
    <g
       id="g37">
      <rect
         fill="#ffffff"
         stroke="none"
         x="348"
         y="136"
         width="146.681640625"
         height="13"
         transform="matrix(1 0 0 1 2 2)"
         id="rect36" />
    </g>
    <g
       id="g39">
      <g
         id="g38">
        <path
           fill="none"
           stroke="none"
           id="path37" />
        <text
           fill="#000000"
           stroke="none"
           font-family="Arial"
           font-size="13px"
           font-style="normal"
           font-weight="normal"
           text-decoration="undefined"
           x="421.3408203125"
           y="142.5"
           text-anchor="middle"
           dominant-baseline="central"
           transform="matrix(1 0 0 1 2 2)"
           id="text37">2 : getSchedules(service)</text>
      </g>
    </g>
    <g
       id="g40">
      <rect
         fill="#ffffff"
         stroke="none"
         x="508"
         y="152"
         width="14"
         height="28"
         transform="matrix(1 0 0 1 2 2)"
         id="rect39" />
    </g>
    <g
       id="g41">
      <path
         fill="none"
         stroke="#000000"
         paint-order="fill stroke markers"
         d=" M 510 154 L 524 154 L 524 182 L 510 182 L 510 154 Z Z"
         stroke-miterlimit="10"
         stroke-dasharray=""
         id="path40" />
    </g>
    <g
       id="g42">
      <path
         fill="none"
         stroke="#000000"
         paint-order="fill stroke markers"
         d=" M 336 186 L 366 186 L 366 206 L 336 206"
         stroke-miterlimit="10"
         stroke-dasharray=""
         id="path41" />
    </g>
    <g
       id="g43">
      <path
         fill="#000000"
         stroke="none"
         paint-order="stroke fill markers"
         d=" M 346.16267485762415 201.790482243984 L 336 206 L 346.16267485762415 210.209517756016"
         id="path42" />
    </g>
    <g
       id="g44">
      <path
         fill="none"
         stroke="#000000"
         paint-order="fill stroke markers"
         d=" M 346.16267485762415 201.790482243984 L 336 206 L 346.16267485762415 210.209517756016 L 346.16267485762415 201.790482243984"
         stroke-miterlimit="10"
         stroke-dasharray=""
         id="path43" />
    </g>
    <g
       id="g45">
      <rect
         fill="#ffffff"
         stroke="none"
         x="295"
         y="187"
         width="156.0888671875"
         height="13"
         transform="matrix(1 0 0 1 2 2)"
         id="rect44" />
    </g>
    <g
       id="g47">
      <g
         id="g46">
        <path
           fill="none"
           stroke="none"
           id="path45" />
        <text
           fill="#000000"
           stroke="none"
           font-family="Arial"
           font-size="13px"
           font-style="normal"
           font-weight="normal"
           text-decoration="undefined"
           x="373.04443359375"
           y="193.5"
           text-anchor="middle"
           dominant-baseline="central"
           transform="matrix(1 0 0 1 2 2)"
           id="text45">3 : assignDatesToCalendar</text>
      </g>
    </g>
    <g
       id="g48">
      <rect
         fill="#ffffff"
         stroke="none"
         x="320"
         y="204"
         width="14"
         height="44"
         transform="matrix(1 0 0 1 2 2)"
         id="rect47" />
    </g>
    <g
       id="g49">
      <path
         fill="none"
         stroke="#000000"
         paint-order="fill stroke markers"
         d=" M 322 206 L 336 206 L 336 250 L 322 250 L 322 206 Z Z"
         stroke-miterlimit="10"
         stroke-dasharray=""
         id="path48" />
    </g>
    <g
       id="g50">
      <path
         fill="none"
         stroke="#000000"
         paint-order="fill stroke markers"
         d=" M 322 242 L 115 242"
         stroke-miterlimit="10"
         stroke-dasharray=""
         id="path49" />
    </g>
    <g
       id="g51">
      <path
         fill="#000000"
         stroke="none"
         paint-order="stroke fill markers"
         d=" M 125.16267485762415 237.790482243984 L 115 242 L 125.16267485762415 246.209517756016"
         id="path50" />
    </g>
    <g
       id="g52">
      <path
         fill="none"
         stroke="#000000"
         paint-order="fill stroke markers"
         d=" M 125.16267485762415 237.790482243984 L 115 242 L 125.16267485762415 246.209517756016 L 125.16267485762415 237.790482243984"
         stroke-miterlimit="10"
         stroke-dasharray=""
         id="path51" />
    </g>
    <g
       id="g53">
      <rect
         fill="#ffffff"
         stroke="none"
         x="160"
         y="244"
         width="111.287109375"
         height="13"
         transform="matrix(1 0 0 1 2 2)"
         id="rect52" />
    </g>
    <g
       id="g55">
      <g
         id="g54">
        <path
           fill="none"
           stroke="none"
           id="path53" />
        <text
           fill="#000000"
           stroke="none"
           font-family="Arial"
           font-size="13px"
           font-style="normal"
           font-weight="normal"
           text-decoration="undefined"
           x="215.6435546875"
           y="250.5"
           text-anchor="middle"
           dominant-baseline="central"
           transform="matrix(1 0 0 1 2 2)"
           id="text53">4 : displayCalendar</text>
      </g>
    </g>
    <g
       id="g56">
      <rect
         fill="#ffffff"
         stroke="none"
         x="99"
         y="240"
         width="14"
         height="28"
         transform="matrix(1 0 0 1 2 2)"
         id="rect55" />
    </g>
    <g
       id="g57">
      <path
         fill="none"
         stroke="#000000"
         paint-order="fill stroke markers"
         d=" M 101 242 L 115 242 L 115 270 L 101 270 L 101 242 Z Z"
         stroke-miterlimit="10"
         stroke-dasharray=""
         id="path56" />
    </g>
  </g>
</svg>
