<?xml version="1.0" encoding="UTF-8" standalone="no"?>
<svg
   version="1.1"
   width="724"
   height="612"
   id="svg88"
   xmlns="http://www.w3.org/2000/svg"
   xmlns:svg="http://www.w3.org/2000/svg">
  <defs
     id="defs1" />
  <g
     id="g88">
    <g
       id="g1">
      <path
         fill="none"
         stroke="#000000"
         paint-order="fill stroke markers"
         d=" M 10 10 L 714 10 L 714 602 L 10 602 L 10 10"
         stroke-miterlimit="10"
         stroke-dasharray=""
         id="path1" />
    </g>
    <g
       id="g2">
      <path
         fill="#ffffff"
         stroke="none"
         paint-order="stroke fill markers"
         d=" M 10 10 L 10 33 L 103.80322265625 33 L 115.30322265625 21.5 L 115.30322265625 10 L 10 10"
         id="path2" />
    </g>
    <g
       id="g3">
      <path
         fill="none"
         stroke="#000000"
         paint-order="fill stroke markers"
         d=" M 10 10 L 10 33 L 103.80322265625 33 L 115.30322265625 21.5 L 115.30322265625 10 L 10 10 L 10 10"
         stroke-miterlimit="10"
         stroke-dasharray=""
         id="path3" />
    </g>
    <g
       id="g5">
      <g
         id="g4">
        <path
           fill="none"
           stroke="none"
           id="path4" />
        <text
           fill="#000000"
           stroke="none"
           font-family="Arial"
           font-size="13px"
           font-style="normal"
           font-weight="normal"
           text-decoration="undefined"
           x="88.7666015625"
           y="19.5"
           text-anchor="middle"
           dominant-baseline="central"
           transform="matrix(1 0 0 1 -22 2)"
           id="text4">View Menu</text>
      </g>
    </g>
    <g
       id="g7">
      <g
         id="g6">
        <path
           fill="none"
           stroke="none"
           id="path5" />
        <text
           fill="#000000"
           stroke="none"
           font-family="Arial"
           font-size="13px"
           font-style="normal"
           font-weight="bold"
           text-decoration="undefined"
           x="43.864990234375"
           y="19.5"
           text-anchor="middle"
           dominant-baseline="central"
           transform="matrix(1 0 0 1 -22 2)"
           id="text5">sd</text>
      </g>
    </g>
    <g
       id="g8">
      <rect
         fill="#C0C0C0"
         stroke="none"
         x="215"
         y="47"
         width="240.35888671875"
         height="40"
         transform="matrix(1 0 0 1 -22 2)"
         fill-opacity="0.2"
         id="rect7" />
    </g>
    <g
       id="g9">
      <rect
         fill="#ffffff"
         stroke="none"
         x="208"
         y="40"
         width="240.35888671875"
         height="40"
         transform="matrix(1 0 0 1 -22 2)"
         id="rect8" />
    </g>
    <g
       id="g10">
      <path
         fill="none"
         stroke="#000000"
         paint-order="fill stroke markers"
         d=" M 186 42 L 426.35888671875 42 L 426.35888671875 82 L 186 82 L 186 42 Z Z"
         stroke-miterlimit="10"
         stroke-dasharray=""
         id="path9" />
    </g>
    <g
       id="g12">
      <g
         id="g11">
        <path
           fill="none"
           stroke="none"
           id="path10" />
        <text
           fill="#000000"
           stroke="none"
           font-family="Arial"
           font-size="13px"
           font-style="normal"
           font-weight="bold"
           text-decoration="undefined"
           x="328.679443359375"
           y="53.5"
           text-anchor="middle"
           dominant-baseline="central"
           transform="matrix(1 0 0 1 -22 2)"
           id="text10">booking: RestaurantReservation</text>
      </g>
    </g>
    <g
       id="g13">
      <path
         fill="none"
         stroke="#000000"
         paint-order="fill stroke markers"
         d=" M 306.5 83 L 306.5 482"
         stroke-miterlimit="10"
         stroke-dasharray="3"
         id="path12" />
    </g>
    <g
       id="g14">
      <rect
         fill="#C0C0C0"
         stroke="none"
         x="47"
         y="47"
         width="163.75537109375"
         height="40"
         transform="matrix(1 0 0 1 -22 2)"
         fill-opacity="0.2"
         id="rect13" />
    </g>
    <g
       id="g15">
      <rect
         fill="#ffffff"
         stroke="none"
         x="40"
         y="40"
         width="163.75537109375"
         height="40"
         transform="matrix(1 0 0 1 -22 2)"
         id="rect14" />
    </g>
    <g
       id="g16">
      <path
         fill="none"
         stroke="#000000"
         paint-order="fill stroke markers"
         d=" M 18 42 L 181.75537109375 42 L 181.75537109375 82 L 18 82 L 18 42 Z Z"
         stroke-miterlimit="10"
         stroke-dasharray=""
         id="path15" />
    </g>
    <g
       id="g18">
      <g
         id="g17">
        <path
           fill="none"
           stroke="none"
           id="path16" />
        <text
           fill="#000000"
           stroke="none"
           font-family="Arial"
           font-size="13px"
           font-style="normal"
           font-weight="bold"
           text-decoration="undefined"
           x="122.377685546875"
           y="53.5"
           text-anchor="middle"
           dominant-baseline="central"
           transform="matrix(1 0 0 1 -22 2)"
           id="text16">customer: Customer</text>
      </g>
    </g>
    <g
       id="g19">
      <path
         fill="none"
         stroke="#000000"
         paint-order="fill stroke markers"
         d=" M 100.5 83 L 100.5 482"
         stroke-miterlimit="10"
         stroke-dasharray="3"
         id="path18" />
    </g>
    <g
       id="g20">
      <rect
         fill="#C0C0C0"
         stroke="none"
         x="463"
         y="47"
         width="96.552734375"
         height="40"
         transform="matrix(1 0 0 1 -22 2)"
         fill-opacity="0.2"
         id="rect19" />
    </g>
    <g
       id="g21">
      <rect
         fill="#ffffff"
         stroke="none"
         x="456"
         y="40"
         width="96.552734375"
         height="40"
         transform="matrix(1 0 0 1 -22 2)"
         id="rect20" />
    </g>
    <g
       id="g22">
      <path
         fill="none"
         stroke="#000000"
         paint-order="fill stroke markers"
         d=" M 434 42 L 530.552734375 42 L 530.552734375 82 L 434 82 L 434 42 Z Z"
         stroke-miterlimit="10"
         stroke-dasharray=""
         id="path21" />
    </g>
    <g
       id="g24">
      <g
         id="g23">
        <path
           fill="none"
           stroke="none"
           id="path22" />
        <text
           fill="#000000"
           stroke="none"
           font-family="Arial"
           font-size="13px"
           font-style="normal"
           font-weight="bold"
           text-decoration="undefined"
           x="504.7763671875"
           y="53.5"
           text-anchor="middle"
           dominant-baseline="central"
           transform="matrix(1 0 0 1 -22 2)"
           id="text22">menu: Menu</text>
      </g>
    </g>
    <g
       id="g25">
      <path
         fill="none"
         stroke="#000000"
         paint-order="fill stroke markers"
         d=" M 482.5 83 L 482.5 482"
         stroke-miterlimit="10"
         stroke-dasharray="3"
         id="path24" />
    </g>
    <g
       id="g26">
      <rect
         fill="#C0C0C0"
         stroke="none"
         x="567"
         y="47"
         width="164.47265625"
         height="40"
         transform="matrix(1 0 0 1 -22 2)"
         fill-opacity="0.2"
         id="rect25" />
    </g>
    <g
       id="g27">
      <rect
         fill="#ffffff"
         stroke="none"
         x="560"
         y="40"
         width="164.47265625"
         height="40"
         transform="matrix(1 0 0 1 -22 2)"
         id="rect26" />
    </g>
    <g
       id="g28">
      <path
         fill="none"
         stroke="#000000"
         paint-order="fill stroke markers"
         d=" M 538 42 L 702.47265625 42 L 702.47265625 82 L 538 82 L 538 42 Z Z"
         stroke-miterlimit="10"
         stroke-dasharray=""
         id="path27" />
    </g>
    <g
       id="g30">
      <g
         id="g29">
        <path
           fill="none"
           stroke="none"
           id="path28" />
        <text
           fill="#000000"
           stroke="none"
           font-family="Arial"
           font-size="13px"
           font-style="normal"
           font-weight="bold"
           text-decoration="undefined"
           x="642.736328125"
           y="53.5"
           text-anchor="middle"
           dominant-baseline="central"
           transform="matrix(1 0 0 1 -22 2)"
           id="text28">menuItems: MenuItem</text>
      </g>
    </g>
    <g
       id="g31">
      <path
         fill="none"
         stroke="#000000"
         paint-order="fill stroke markers"
         d=" M 620.5 83 L 620.5 482"
         stroke-miterlimit="10"
         stroke-dasharray="3"
         id="path30" />
    </g>
    <g
       id="g32">
      <path
         fill="none"
         stroke="#000000"
         paint-order="fill stroke markers"
         d=" M 101 115 L 299 115"
         stroke-miterlimit="10"
         stroke-dasharray=""
         id="path31" />
    </g>
    <g
       id="g33">
      <path
         fill="#000000"
         stroke="none"
         paint-order="stroke fill markers"
         d=" M 288.83732514237585 119.20951775601598 L 299 115 L 288.83732514237585 110.79048224398402"
         id="path32" />
    </g>
    <g
       id="g34">
      <path
         fill="none"
         stroke="#000000"
         paint-order="fill stroke markers"
         d=" M 288.83732514237585 119.20951775601598 L 299 115 L 288.83732514237585 110.79048224398402 L 288.83732514237585 119.20951775601598"
         stroke-miterlimit="10"
         stroke-dasharray=""
         id="path33" />
    </g>
    <g
       id="g35">
      <rect
         fill="#ffffff"
         stroke="none"
         x="166"
         y="97"
         width="112.48681640625"
         height="13"
         transform="matrix(1 0 0 1 -22 2)"
         id="rect34" />
    </g>
    <g
       id="g37">
      <g
         id="g36">
        <path
           fill="none"
           stroke="none"
           id="path35" />
        <text
           fill="#000000"
           stroke="none"
           font-family="Arial"
           font-size="13px"
           font-style="normal"
           font-weight="normal"
           text-decoration="undefined"
           x="222.243408203125"
           y="103.5"
           text-anchor="middle"
           dominant-baseline="central"
           transform="matrix(1 0 0 1 -22 2)"
           id="text35">1 : selectViewMenu</text>
      </g>
    </g>
    <g
       id="g38">
      <rect
         fill="#ffffff"
         stroke="none"
         x="321"
         y="113"
         width="14"
         height="28"
         transform="matrix(1 0 0 1 -22 2)"
         id="rect37" />
    </g>
    <g
       id="g39">
      <path
         fill="none"
         stroke="#000000"
         paint-order="fill stroke markers"
         d=" M 299 115 L 313 115 L 313 143 L 299 143 L 299 115 Z Z"
         stroke-miterlimit="10"
         stroke-dasharray=""
         id="path38" />
    </g>
    <g
       id="g40">
      <path
         fill="none"
         stroke="#000000"
         paint-order="fill stroke markers"
         d=" M 307 178 L 475 178"
         stroke-miterlimit="10"
         stroke-dasharray=""
         id="path39" />
    </g>
    <g
       id="g41">
      <path
         fill="#000000"
         stroke="none"
         paint-order="stroke fill markers"
         d=" M 464.83732514237585 182.209517756016 L 475 178 L 464.83732514237585 173.790482243984"
         id="path40" />
    </g>
    <g
       id="g42">
      <path
         fill="none"
         stroke="#000000"
         paint-order="fill stroke markers"
         d=" M 464.83732514237585 182.209517756016 L 475 178 L 464.83732514237585 173.790482243984 L 464.83732514237585 182.209517756016"
         stroke-miterlimit="10"
         stroke-dasharray=""
         id="path41" />
    </g>
    <g
       id="g43">
      <rect
         fill="#ffffff"
         stroke="none"
         x="374"
         y="160"
         width="78.04443359375"
         height="13"
         transform="matrix(1 0 0 1 -22 2)"
         id="rect42" />
    </g>
    <g
       id="g45">
      <g
         id="g44">
        <path
           fill="none"
           stroke="none"
           id="path43" />
        <text
           fill="#000000"
           stroke="none"
           font-family="Arial"
           font-size="13px"
           font-style="normal"
           font-weight="normal"
           text-decoration="undefined"
           x="413.022216796875"
           y="166.5"
           text-anchor="middle"
           dominant-baseline="central"
           transform="matrix(1 0 0 1 -22 2)"
           id="text43">2 : getMenu</text>
      </g>
    </g>
    <g
       id="g46">
      <rect
         fill="#ffffff"
         stroke="none"
         x="497"
         y="176"
         width="14"
         height="28"
         transform="matrix(1 0 0 1 -22 2)"
         id="rect45" />
    </g>
    <g
       id="g47">
      <path
         fill="none"
         stroke="#000000"
         paint-order="fill stroke markers"
         d=" M 475 178 L 489 178 L 489 206 L 475 206 L 475 178 Z Z"
         stroke-miterlimit="10"
         stroke-dasharray=""
         id="path46" />
    </g>
    <g
       id="g48">
      <path
         fill="none"
         stroke="#000000"
         paint-order="fill stroke markers"
         d=" M 483 226 L 613 226"
         stroke-miterlimit="10"
         stroke-dasharray=""
         id="path47" />
    </g>
    <g
       id="g49">
      <path
         fill="#000000"
         stroke="none"
         paint-order="stroke fill markers"
         d=" M 602.8373251423759 230.209517756016 L 613 226 L 602.8373251423758 221.790482243984"
         id="path48" />
    </g>
    <g
       id="g50">
      <path
         fill="none"
         stroke="#000000"
         paint-order="fill stroke markers"
         d=" M 602.8373251423759 230.209517756016 L 613 226 L 602.8373251423758 221.790482243984 L 602.8373251423759 230.209517756016"
         stroke-miterlimit="10"
         stroke-dasharray=""
         id="path49" />
    </g>
    <g
       id="g51">
      <rect
         fill="#ffffff"
         stroke="none"
         x="520"
         y="208"
         width="100.43896484375"
         height="13"
         transform="matrix(1 0 0 1 -22 2)"
         id="rect50" />
    </g>
    <g
       id="g53">
      <g
         id="g52">
        <path
           fill="none"
           stroke="none"
           id="path51" />
        <text
           fill="#000000"
           stroke="none"
           font-family="Arial"
           font-size="13px"
           font-style="normal"
           font-weight="normal"
           text-decoration="undefined"
           x="570.219482421875"
           y="214.5"
           text-anchor="middle"
           dominant-baseline="central"
           transform="matrix(1 0 0 1 -22 2)"
           id="text51">3 : getMenuItems</text>
      </g>
    </g>
    <g
       id="g54">
      <rect
         fill="#ffffff"
         stroke="none"
         x="635"
         y="224"
         width="14"
         height="28"
         transform="matrix(1 0 0 1 -22 2)"
         id="rect53" />
    </g>
    <g
       id="g55">
      <path
         fill="none"
         stroke="#000000"
         paint-order="fill stroke markers"
         d=" M 613 226 L 627 226 L 627 254 L 613 254 L 613 226 Z Z"
         stroke-miterlimit="10"
         stroke-dasharray=""
         id="path54" />
    </g>
    <g
       id="g56">
      <path
         fill="none"
         stroke="#000000"
         paint-order="fill stroke markers"
         d=" M 483 258 L 513 258 L 513 278 L 489 278"
         stroke-miterlimit="10"
         stroke-dasharray=""
         id="path55" />
    </g>
    <g
       id="g57">
      <path
         fill="#000000"
         stroke="none"
         paint-order="stroke fill markers"
         d=" M 499.1626748576241 273.790482243984 L 489 278 L 499.1626748576241 282.209517756016"
         id="path56" />
    </g>
    <g
       id="g58">
      <path
         fill="none"
         stroke="#000000"
         paint-order="fill stroke markers"
         d=" M 499.1626748576241 273.790482243984 L 489 278 L 499.1626748576241 282.209517756016 L 499.1626748576241 273.790482243984"
         stroke-miterlimit="10"
         stroke-dasharray=""
         id="path57" />
    </g>
    <g
       id="g59">
      <rect
         fill="#ffffff"
         stroke="none"
         x="499"
         y="259"
         width="90.34619140625"
         height="13"
         transform="matrix(1 0 0 1 -22 2)"
         id="rect58" />
    </g>
    <g
       id="g61">
      <g
         id="g60">
        <path
           fill="none"
           stroke="none"
           id="path59" />
        <text
           fill="#000000"
           stroke="none"
           font-family="Arial"
           font-size="13px"
           font-style="normal"
           font-weight="normal"
           text-decoration="undefined"
           x="544.173095703125"
           y="265.5"
           text-anchor="middle"
           dominant-baseline="central"
           transform="matrix(1 0 0 1 -22 2)"
           id="text59">4 : updateMenu</text>
      </g>
    </g>
    <g
       id="g62">
      <rect
         fill="#ffffff"
         stroke="none"
         x="497"
         y="276"
         width="14"
         height="28"
         transform="matrix(1 0 0 1 -22 2)"
         id="rect61" />
    </g>
    <g
       id="g63">
      <path
         fill="none"
         stroke="#000000"
         paint-order="fill stroke markers"
         d=" M 475 278 L 489 278 L 489 306 L 475 306 L 475 278 Z Z"
         stroke-miterlimit="10"
         stroke-dasharray=""
         id="path62" />
    </g>
    <g
       id="g64">
      <path
         fill="none"
         stroke="#000000"
         paint-order="fill stroke markers"
         d=" M 306 282 L 107 282"
         stroke-miterlimit="10"
         stroke-dasharray=""
         id="path63" />
    </g>
    <g
       id="g65">
      <path
         fill="#000000"
         stroke="none"
         paint-order="stroke fill markers"
         d=" M 117.16267485762415 277.790482243984 L 107 282 L 117.16267485762415 286.209517756016"
         id="path64" />
    </g>
    <g
       id="g66">
      <path
         fill="none"
         stroke="#000000"
         paint-order="fill stroke markers"
         d=" M 117.16267485762415 277.790482243984 L 107 282 L 117.16267485762415 286.209517756016 L 117.16267485762415 277.790482243984"
         stroke-miterlimit="10"
         stroke-dasharray=""
         id="path65" />
    </g>
    <g
       id="g67">
      <rect
         fill="#ffffff"
         stroke="none"
         x="182"
         y="284"
         width="91.05078125"
         height="13"
         transform="matrix(1 0 0 1 -22 2)"
         id="rect66" />
    </g>
    <g
       id="g69">
      <g
         id="g68">
        <path
           fill="none"
           stroke="none"
           id="path67" />
        <text
           fill="#000000"
           stroke="none"
           font-family="Arial"
           font-size="13px"
           font-style="normal"
           font-weight="normal"
           text-decoration="undefined"
           x="227.525390625"
           y="290.5"
           text-anchor="middle"
           dominant-baseline="central"
           transform="matrix(1 0 0 1 -22 2)"
           id="text67">5 : displayMenu</text>
      </g>
    </g>
    <g
       id="g70">
      <rect
         fill="#ffffff"
         stroke="none"
         x="115"
         y="280"
         width="14"
         height="28"
         transform="matrix(1 0 0 1 -22 2)"
         id="rect69" />
    </g>
    <g
       id="g71">
      <path
         fill="none"
         stroke="#000000"
         paint-order="fill stroke markers"
         d=" M 93 282 L 107 282 L 107 310 L 93 310 L 93 282 Z Z"
         stroke-miterlimit="10"
         stroke-dasharray=""
         id="path70" />
    </g>
    <g
       id="g72">
      <path
         fill="none"
         stroke="#000000"
         paint-order="fill stroke markers"
         d=" M 101 354 L 299 354"
         stroke-miterlimit="10"
         stroke-dasharray=""
         id="path71" />
    </g>
    <g
       id="g73">
      <path
         fill="#000000"
         stroke="none"
         paint-order="stroke fill markers"
         d=" M 288.83732514237585 358.209517756016 L 299 354 L 288.83732514237585 349.790482243984"
         id="path72" />
    </g>
    <g
       id="g74">
      <path
         fill="none"
         stroke="#000000"
         paint-order="fill stroke markers"
         d=" M 288.83732514237585 358.209517756016 L 299 354 L 288.83732514237585 349.790482243984 L 288.83732514237585 358.209517756016"
         stroke-miterlimit="10"
         stroke-dasharray=""
         id="path73" />
    </g>
    <g
       id="g75">
      <rect
         fill="#ffffff"
         stroke="none"
         x="170"
         y="336"
         width="104.7744140625"
         height="13"
         transform="matrix(1 0 0 1 -22 2)"
         id="rect74" />
    </g>
    <g
       id="g77">
      <g
         id="g76">
        <path
           fill="none"
           stroke="none"
           id="path75" />
        <text
           fill="#000000"
           stroke="none"
           font-family="Arial"
           font-size="13px"
           font-style="normal"
           font-weight="normal"
           text-decoration="undefined"
           x="222.38720703125"
           y="342.5"
           text-anchor="middle"
           dominant-baseline="central"
           transform="matrix(1 0 0 1 -22 2)"
           id="text75">6 : selectCategory</text>
      </g>
    </g>
    <g
       id="g78">
      <rect
         fill="#ffffff"
         stroke="none"
         x="321"
         y="352"
         width="14"
         height="28"
         transform="matrix(1 0 0 1 -22 2)"
         id="rect77" />
    </g>
    <g
       id="g79">
      <path
         fill="none"
         stroke="#000000"
         paint-order="fill stroke markers"
         d=" M 299 354 L 313 354 L 313 382 L 299 382 L 299 354 Z Z"
         stroke-miterlimit="10"
         stroke-dasharray=""
         id="path78" />
    </g>
    <g
       id="g80">
      <path
         fill="none"
         stroke="#000000"
         paint-order="fill stroke markers"
         d=" M 306 402 L 107 402"
         stroke-miterlimit="10"
         stroke-dasharray=""
         id="path79" />
    </g>
    <g
       id="g81">
      <path
         fill="#000000"
         stroke="none"
         paint-order="stroke fill markers"
         d=" M 117.16267485762415 397.790482243984 L 107 402 L 117.16267485762415 406.209517756016"
         id="path80" />
    </g>
    <g
       id="g82">
      <path
         fill="none"
         stroke="#000000"
         paint-order="fill stroke markers"
         d=" M 117.16267485762415 397.790482243984 L 107 402 L 117.16267485762415 406.209517756016 L 117.16267485762415 397.790482243984"
         stroke-miterlimit="10"
         stroke-dasharray=""
         id="path81" />
    </g>
    <g
       id="g83">
      <rect
         fill="#ffffff"
         stroke="none"
         x="172"
         y="404"
         width="111.28076171875"
         height="13"
         transform="matrix(1 0 0 1 -22 2)"
         id="rect82" />
    </g>
    <g
       id="g85">
      <g
         id="g84">
        <path
           fill="none"
           stroke="none"
           id="path83" />
        <text
           fill="#000000"
           stroke="none"
           font-family="Arial"
           font-size="13px"
           font-style="normal"
           font-weight="normal"
           text-decoration="undefined"
           x="227.640380859375"
           y="410.5"
           text-anchor="middle"
           dominant-baseline="central"
           transform="matrix(1 0 0 1 -22 2)"
           id="text83">7 : displayCategory</text>
      </g>
    </g>
    <g
       id="g86">
      <rect
         fill="#ffffff"
         stroke="none"
         x="115"
         y="400"
         width="14"
         height="28"
         transform="matrix(1 0 0 1 -22 2)"
         id="rect85" />
    </g>
    <g
       id="g87">
      <path
         fill="none"
         stroke="#000000"
         paint-order="fill stroke markers"
         d=" M 93 402 L 107 402 L 107 430 L 93 430 L 93 402 Z Z"
         stroke-miterlimit="10"
         stroke-dasharray=""
         id="path86" />
    </g>
  </g>
</svg>
